<?xml version="1.0" encoding="UTF-8" standalone="no"?>
<svg
   xmlns:dc="http://purl.org/dc/elements/1.1/"
   xmlns:cc="http://creativecommons.org/ns#"
   xmlns:rdf="http://www.w3.org/1999/02/22-rdf-syntax-ns#"
   xmlns:svg="http://www.w3.org/2000/svg"
   xmlns="http://www.w3.org/2000/svg"
   xmlns:sodipodi="http://sodipodi.sourceforge.net/DTD/sodipodi-0.dtd"
   xmlns:inkscape="http://www.inkscape.org/namespaces/inkscape"
   id="logoipsum"
   data-name="logoipsum"
   viewBox="0 0 39.639999 39.540478"
   version="1.1"
   sodipodi:docname="logo.svg"
   width="39.639999"
   height="39.540478"
   inkscape:version="1.0 (4035a4fb49, 2020-05-01)">
  <metadata
     id="metadata13">
    <rdf:RDF>
      <cc:Work
         rdf:about="">
        <dc:format>image/svg+xml</dc:format>
        <dc:type
           rdf:resource="http://purl.org/dc/dcmitype/StillImage" />
        <dc:title>logoipsum-4</dc:title>
      </cc:Work>
    </rdf:RDF>
  </metadata>
  <defs
     id="defs11" />
  <sodipodi:namedview
     fit-margin-bottom="5"
     fit-margin-left="5"
     lock-margins="true"
     fit-margin-right="5"
     fit-margin-top="5"
     inkscape:document-rotation="0"
     pagecolor="#ffffff"
     bordercolor="#666666"
     borderopacity="1"
     objecttolerance="10"
     gridtolerance="10"
     guidetolerance="10"
     inkscape:pageopacity="0"
     inkscape:pageshadow="2"
     inkscape:window-width="1920"
     inkscape:window-height="1027"
     id="namedview9"
     showgrid="false"
     inkscape:snap-perpendicular="false"
     inkscape:snap-tangential="false"
     units="mm"
     inkscape:zoom="6.6486669"
     inkscape:cx="87.020354"
     inkscape:cy="50.453322"
     inkscape:window-x="-8"
     inkscape:window-y="180"
     inkscape:window-maximized="1"
     inkscape:current-layer="logoipsum" />
  <title
     id="title2">logoipsum-4</title>
  <path
     d="M 34.64,14.880479 A 9.88,9.88 0 0 0 17.48,8.2004791 H 5 V 34.540479 h 26.35 v -12.31 a 9.87,9.87 0 0 0 3.29,-7.35 z m -5.07,0 a 4.82,4.82 0 1 1 -4.82,-4.81 4.82,4.82 0 0 1 4.82,4.81 z m -3.29,14.59 H 10.07 v -16.2 h 4.94 a 9.55,9.55 0 0 0 -0.15,1.61 9.9,9.9 0 0 0 9.89,9.89 9.67,9.67 0 0 0 1.53,-0.13 z"
     style="fill:#4d4d4d"
     id="path6" />
</svg>
