<svg id="Livello_1" data-name="Livello 1" xmlns="http://www.w3.org/2000/svg" xmlns:xlink="http://www.w3.org/1999/xlink" viewBox="0 0 288.19 220.16"><defs><style>.cls-1{fill:#10bfd4;}.cls-2{fill:url(#linear-gradient);}.cls-3{fill:url(#linear-gradient-2);}.cls-4{fill:url(#linear-gradient-3);}.cls-5{fill:url(#linear-gradient-4);}.cls-6{fill:url(#linear-gradient-5);}.cls-7{fill:url(#linear-gradient-6);}.cls-8{fill:url(#linear-gradient-7);}.cls-9{fill:url(#linear-gradient-8);}.cls-10{fill:url(#linear-gradient-9);}.cls-11{fill:url(#linear-gradient-10);}.cls-12{fill:url(#linear-gradient-11);}.cls-13{fill:url(#linear-gradient-12);}</style><linearGradient id="linear-gradient" x1="92.65" y1="4.02" x2="92.65" y2="216.15" gradientUnits="userSpaceOnUse"><stop offset="0" stop-color="#e9eaeb"/><stop offset="0.24" stop-color="#ebeced"/><stop offset="0.33" stop-color="#f2f2f3"/><stop offset="0.39" stop-color="#fdfdfe"/><stop offset="0.4" stop-color="#fff"/><stop offset="0.45" stop-color="#fdfdfd"/><stop offset="0.47" stop-color="#f6f7f7"/><stop offset="0.49" stop-color="#ebebec"/><stop offset="0.5" stop-color="#dadbdc"/><stop offset="0.58" stop-color="#cecfd0"/><stop offset="0.66" stop-color="#bbbdbf"/><stop offset="0.68" stop-color="#c5c7c9"/><stop offset="0.74" stop-color="#dadbdc"/><stop offset="0.8" stop-color="#e8e9ea"/><stop offset="0.88" stop-color="#f0f1f2"/><stop offset="1" stop-color="#f3f4f4"/></linearGradient><linearGradient id="linear-gradient-2" x1="251.97" y1="11.23" x2="251.97" y2="223.36" xlink:href="#linear-gradient"/><linearGradient id="linear-gradient-3" x1="41.08" y1="11.23" x2="41.08" y2="223.36" xlink:href="#linear-gradient"/><linearGradient id="linear-gradient-4" x1="173.7" y1="11.23" x2="173.7" y2="223.36" xlink:href="#linear-gradient"/><linearGradient id="linear-gradient-5" x1="79.36" y1="117.3" x2="117.82" y2="117.3" xlink:href="#linear-gradient"/><linearGradient id="linear-gradient-6" x1="209.81" y1="117.3" x2="294.13" y2="117.3" xlink:href="#linear-gradient"/><linearGradient id="linear-gradient-7" x1="5.94" y1="117.3" x2="76.22" y2="117.3" xlink:href="#linear-gradient"/><linearGradient id="linear-gradient-8" x1="125.64" y1="117.3" x2="221.76" y2="117.3" xlink:href="#linear-gradient"/><linearGradient id="linear-gradient-9" x1="82.89" y1="117.29" x2="114.29" y2="117.29" xlink:href="#linear-gradient"/><linearGradient id="linear-gradient-10" x1="213.34" y1="117.29" x2="290.6" y2="117.29" xlink:href="#linear-gradient"/><linearGradient id="linear-gradient-11" x1="9.47" y1="117.29" x2="72.69" y2="117.29" xlink:href="#linear-gradient"/><linearGradient id="linear-gradient-12" x1="129.16" y1="117.29" x2="218.23" y2="117.29" xlink:href="#linear-gradient"/></defs><rect class="cls-1" x="73.58" y="0.16" width="38.14" height="219.84"/><ellipse class="cls-2" cx="92.65" cy="110.08" rx="21.52" ry="150"/><polygon class="cls-1" points="227.62 220 227.62 33.47 204.03 33.47 204.03 0.16 288.03 0.16 288.03 33.47 264.82 33.47 264.82 220 227.62 220"/><path class="cls-3" d="M213.82,11.23v25.6h23.6V223.36H266.9V36.83h23.21V11.23Z" transform="translate(-5.94 -7.21)"/><polygon class="cls-1" points="0.16 220 0.16 0.16 70.11 0.16 70.11 33.47 37.36 33.47 37.36 90.81 62.47 90.81 62.47 123.77 37.36 123.77 37.36 220 0.16 220"/><path class="cls-4" d="M10,223.36H39.44V127.12H64.55V101.88H39.44v-65H72.2V11.23H10Z" transform="translate(-5.94 -7.21)"/><path class="cls-1" d="M186.32,227.21v-3.84q0-6.35,0-12.73l0-11.46c0-6.64-.05-15.39-.14-24.25-.19-17.17-.57-31.26-1.2-44H160v96.23H125.8V7.38h68.41l1.08,2.07a163.6,163.6,0,0,1,9.8,23.22,229.3,229.3,0,0,1,6.77,25c1.73,8.1,3.23,17,4.45,26.32,1.11,8.5,2,17.42,2.74,27.28.64,8.63,1.13,17.76,1.52,27.88.32,8.6.56,17.82.72,28.17.13,8.26.22,17.47.26,28.16q0,7,0,14t0,13.9v3.85ZM182.42,98c-2.5-23.38-6.4-42.2-11.88-57.34H160V98Z" transform="translate(-5.94 -7.21)"/><path class="cls-5" d="M217.7,195.48c0-9.3-.12-18.79-.26-28.12s-.37-18.79-.73-28.09-.83-18.6-1.51-27.74-1.56-18.2-2.71-27.06-2.59-17.57-4.4-26a221.19,221.19,0,0,0-6.66-24.56,159.43,159.43,0,0,0-9.55-22.67H129.65V223.36h26.49V127.12h32.43c.85,15.55,1.22,31.63,1.39,47.77q.14,12.12.15,24.27t0,24.2h27.58q0-6.92,0-13.9C217.73,204.82,217.72,200.15,217.7,195.48Zm-61.56-93.6v-65h17.08c7,18.34,11.1,40.79,13.47,65.05Z" transform="translate(-5.94 -7.21)"/><path class="cls-6" d="M117.82,227.38H79.36V7.21h38.46Zm-38.14-.33H117.5V7.54H79.68Z" transform="translate(-5.94 -7.21)"/><path class="cls-7" d="M270.92,227.38H233.4V40.84H209.81V7.21h84.32V40.84H270.92Zm-37.19-.33h36.86V40.52H293.8v-33H210.13v33h23.6Z" transform="translate(-5.94 -7.21)"/><path class="cls-8" d="M43.46,227.38H5.94V7.21H76.22V40.84H43.46v57H68.57v33.28H43.46Zm-37.2-.33H43.13V130.82H68.24V98.19H43.13V40.52H75.89v-33H6.26Z" transform="translate(-5.94 -7.21)"/><path class="cls-9" d="M221.76,227.38h-35.6v-4c0-3.58,0-7.17,0-10.77v-2l0-11.46c0-6.58-.05-15.28-.15-24.25-.18-17.21-.56-31.13-1.18-43.79H160.15v96.24H125.64V7.21h68.67l1.13,2.16a164,164,0,0,1,9.8,23.25,227.4,227.4,0,0,1,6.78,25c1.73,8.1,3.23,17,4.45,26.33,1.11,8.5,2,17.42,2.74,27.29.64,8.63,1.14,17.75,1.52,27.88.33,8.63.56,17.85.72,28.18.13,8.27.22,17.48.26,28.16q0,7,0,14t0,13.9Zm-35.28-.33h35V209.46q0-7,0-14c0-10.67-.13-19.88-.26-28.16-.16-10.33-.4-19.54-.73-28.16-.38-10.13-.88-19.25-1.52-27.88-.73-9.86-1.62-18.77-2.73-27.27-1.22-9.36-2.72-18.21-4.45-26.3a226.86,226.86,0,0,0-6.77-25,163.8,163.8,0,0,0-9.78-23.2l-1-2H126V227.05h33.87V130.82h25.24V131c.63,12.7,1,26.67,1.2,44,.1,9,.13,17.67.15,24.24,0,3.83,0,7.65,0,11.47v2q0,5.4,0,10.77ZM182.61,98.19H159.83V40.52h10.83l0,.1c5.49,15.18,9.38,33.95,11.89,57.39Zm-22.46-.33h22.09c-2.5-23.27-6.36-41.92-11.81-57H160.15Z" transform="translate(-5.94 -7.21)"/><path class="cls-10" d="M114.29,223.85H82.89V10.74h31.4Zm-30.43-1h29.46V11.72H83.86Z" transform="translate(-5.94 -7.21)"/><path class="cls-11" d="M267.39,223.85H236.93V37.31H213.34V10.74H290.6V37.31H267.39Zm-29.48-1h28.5V36.34h23.21V11.72H214.31V36.34h23.6Z" transform="translate(-5.94 -7.21)"/><path class="cls-12" d="M39.93,223.85H9.47V10.74H72.69V37.31H39.93v64.08H65v26.22H39.93Zm-29.49-1H39V126.63H64.06V102.37H39v-66H71.71V11.72H10.44Z" transform="translate(-5.94 -7.21)"/><path class="cls-13" d="M218.23,223.85H189.68v-.49q0-6.47,0-13l0-11.21c0-6.66-.05-15.43-.15-24.27-.2-18.67-.63-33.72-1.36-47.29H156.62v96.24H129.16V10.74h63l.14.27a160.67,160.67,0,0,1,9.59,22.73,227.87,227.87,0,0,1,6.67,24.62c1.71,8,3.19,16.77,4.4,26.05,1.1,8.44,2,17.3,2.72,27.09.64,8.6,1.13,17.68,1.51,27.76.33,8.56.56,17.75.73,28.09.13,8.24.21,17.44.26,28.13,0,4.67,0,9.33,0,14s0,9.29,0,13.9Zm-27.58-1h26.6V209.46c0-4.64,0-9.31,0-14-.05-10.68-.13-19.88-.26-28.11-.16-10.33-.4-19.52-.72-28.08-.38-10.06-.88-19.13-1.52-27.72C214,101.8,213.1,93,212,84.53c-1.2-9.25-2.68-18-4.39-26A222.77,222.77,0,0,0,201,34.06a160.14,160.14,0,0,0-9.39-22.34H130.14V222.87h25.51V126.63H189l0,.47c.74,13.7,1.18,28.89,1.39,47.78.09,8.86.13,17.63.15,24.28,0,3.74,0,7.48,0,11.21Q190.64,216.64,190.65,222.87Zm-3.42-120.5H155.65v-66h17.9l.12.31c6.45,16.79,10.86,38.12,13.51,65.18Zm-30.61-1h29.53c-2.62-26.55-7-47.53-13.27-64.08H156.62Z" transform="translate(-5.94 -7.21)"/></svg>