<svg xmlns="http://www.w3.org/2000/svg" width="270.199" height="270.199" viewBox="0 0 270.199 270.199">
  <g id="Raggruppa_29692" data-name="Raggruppa 29692" transform="translate(-613 -15381.383)">
    <circle id="Ellisse_14" data-name="Ellisse 14" cx="135.1" cy="135.1" r="135.1" transform="translate(613 15381.383)" fill="#28b8ce"/>
    <g id="speaker" transform="translate(682.149 15457.993)">
      <path id="Tracciato_215" data-name="Tracciato 215" d="M63.35,42.1,26.947,64.26H4.05A4.051,4.051,0,0,0,0,68.311V128.8a4.051,4.051,0,0,0,4.05,4.05h22.9l36.4,22.158a12.149,12.149,0,0,0,18.469-10.38V52.482A12.149,12.149,0,0,0,63.35,42.1ZM8.1,72.361H24.033v52.386H8.1Zm65.617,72.265a4.049,4.049,0,0,1-6.157,3.46L32.134,126.521V70.587L67.561,49.022a4.049,4.049,0,0,1,6.157,3.46Z" transform="translate(0 -40.31)" fill="#fff"/>
      <path id="Tracciato_216" data-name="Tracciato 216" d="M342.471,213.907a4.051,4.051,0,0,0,0,5.728,6.747,6.747,0,0,1,0,9.547,4.05,4.05,0,0,0,5.728,5.728,14.868,14.868,0,0,0,0-21A4.051,4.051,0,0,0,342.471,213.907Z" transform="translate(-249.128 -166.164)" fill="#fff"/>
      <path id="Tracciato_217" data-name="Tracciato 217" d="M393.454,168.653a4.05,4.05,0,0,0-5.728,5.728,24.06,24.06,0,0,1,0,33.987,4.05,4.05,0,0,0,5.728,5.728A32.17,32.17,0,0,0,393.454,168.653Z" transform="translate(-282.162 -133.13)" fill="#fff"/>
      <path id="Tracciato_218" data-name="Tracciato 218" d="M438.708,123.4a4.051,4.051,0,0,0-5.729,5.728,40.875,40.875,0,0,1,0,58.428,4.051,4.051,0,0,0,5.729,5.728C458.359,173.631,458.38,143.07,438.708,123.4Z" transform="translate(-315.196 -100.096)" fill="#fff"/>
    </g>
  </g>
</svg>
