<svg id="Livello_1" data-name="Livello 1" xmlns="http://www.w3.org/2000/svg" width="244.14mm" height="72.47mm" viewBox="0 0 692.06 205.42">
  <defs>
    <style>
      .cls-1 {
        fill: #a40239;
      }

      .cls-2 {
        fill: #fff;
      }
    </style>
  </defs>
  <polygon class="cls-1" points="331.6 0 0 46.61 13.06 139.53 274.24 102.83 321.34 138.53 315.52 97.03 344.64 92.93 331.6 0"/>
  <g>
    <path class="cls-2" d="M740.68,369.75c0-13.75.53-26.27,10.05-26.27s10,12.52,10,26.27c0,13.14-.53,25.75-10,25.75s-10.05-12.61-10.05-25.75m10.05,31.57c16.84,0,17.81-18.34,17.81-31.57,0-15.34-1-32.09-17.81-32.09S732.92,356,732.92,369.75c0,14.81,1,31.57,17.81,31.57m-50.17-31.57c0-13.75.53-26.27,10.05-26.27s10,12.52,10,26.27c0,13.14-.53,25.75-10,25.75s-10.05-12.61-10.05-25.75m10.05,31.57c16.84,0,17.81-18.34,17.81-31.57,0-15.34-1-32.09-17.81-32.09S692.8,356,692.8,369.75c0,14.81,1,31.57,17.81,31.57" transform="translate(-76.47 -195.89)"/>
    <path class="cls-2" d="M641.48,369.75c0-13.75.53-26.27,10.06-26.27s10.05,12.52,10.05,26.27c0,13.14-.53,25.75-10.05,25.75s-10.06-12.61-10.06-25.75m10.06,31.57c16.84,0,17.81-18.34,17.81-31.57,0-15.34-1-32.09-17.81-32.09S633.72,356,633.72,369.75c0,14.81,1,31.57,17.82,31.57m-50.18-31.57c0-13.75.53-26.27,10-26.27s10.05,12.52,10.05,26.27c0,13.14-.52,25.75-10.05,25.75s-10-12.61-10-25.75m10,31.57c16.85,0,17.82-18.34,17.82-31.57,0-15.34-1-32.09-17.82-32.09s-17.8,18.34-17.8,32.09c0,14.81,1,31.57,17.8,31.57m-50.25-18.7c0-7.32,2.91-12.87,10.14-12.87s10.14,5.55,10.14,12.87-2.91,12.88-10.14,12.88-10.14-5.56-10.14-12.88m10.14-39.14c5.64,0,8.2,4.32,8.2,10.22s-2.56,10.23-8.2,10.23-8.2-4.41-8.2-10.23,2.47-10.22,8.2-10.22m-17.9,39.41c0,8.2,3.88,18.43,17.9,18.43s17.9-10.23,17.9-18.43c0-8.38-3.53-13.58-11-16.05,6.25-2.56,9.08-6.61,9.08-13.31,0-10-6.08-15.87-16-15.87s-16,5.82-16,15.87c0,6.7,2.82,10.75,9.08,13.31-7.49,2.47-11,7.67-11,16.05m-22.31,7.32H507.55c.62-2.39,2.74-5.82,6.44-9.18l7-6.52c7.14-6.44,9.7-11.73,9.7-19.84,0-10.76-6.17-17-18.69-17-13.32,0-19.41,6.52-19.41,18.07v2.38h12.18c.08-6.61.7-12.17,7.05-12.17,4,0,6.17,2.56,6.17,7.76,0,6.44-1,9.26-6.52,14.29l-5.12,4.76c-9.26,8.55-13.76,16.22-13.76,27.33h38.45ZM450,387.12H472.2v13h11.63v-13h6v-9.88h-6V337.66H470.7l-20.73,39Zm22.23-9.88H459.85L472,353.53h.19Zm-64,4.59v.27c0,11.9,6,19.22,18.07,19.22,17.29,0,20.72-10.59,20.72-19,0-7.85-3.08-13.49-11.1-14.72v-.18c5.91-1.32,9.52-6.27,9.52-13.76,0-11-6.7-16-18-16-11.81,0-18.34,6.17-18.34,18.42H420.7c0-5.91,1-10.14,6.44-10.14,4.14,0,6.08,2.38,6.08,8.2,0,5.12-1.94,9.88-7.23,9.88h-4.14v8.29h4.23c7,0,8.2,5.11,8.2,10.67s-.79,10-7,10c-5.56,0-6.8-4-7-11.2Zm-47.53-12.08c0-13.75.53-26.27,10.06-26.27s10.05,12.52,10.05,26.27c0,13.14-.53,25.75-10.05,25.75s-10.06-12.61-10.06-25.75m10.06,31.57c16.84,0,17.81-18.34,17.81-31.57,0-15.34-1-32.09-17.81-32.09S352.89,356,352.89,369.75c0,14.81,1,31.57,17.82,31.57m-50.17-31.57c0-13.75.53-26.27,10-26.27s10.05,12.52,10.05,26.27c0,13.14-.53,25.75-10.05,25.75s-10-12.61-10-25.75m10,31.57c16.84,0,17.81-18.34,17.81-31.57,0-15.34-1-32.09-17.81-32.09S312.78,356,312.78,369.75c0,14.81,1,31.57,17.81,31.57m-50.26-18.7c0-7.32,2.91-12.87,10.14-12.87s10.14,5.55,10.14,12.87-2.91,12.88-10.14,12.88-10.14-5.56-10.14-12.88m10.14-39.14c5.65,0,8.2,4.32,8.2,10.22s-2.55,10.23-8.2,10.23-8.2-4.41-8.2-10.23,2.47-10.22,8.2-10.22m-17.9,39.41c0,8.2,3.88,18.43,17.9,18.43s17.9-10.23,17.9-18.43c0-8.38-3.53-13.58-11-16.05,6.26-2.56,9.08-6.61,9.08-13.31,0-10-6.08-15.87-16-15.87s-16,5.82-16,15.87c0,6.7,2.82,10.75,9.08,13.31-7.49,2.47-11,7.67-11,16.05" transform="translate(-76.47 -195.89)"/>
    <path class="cls-2" d="M223.55,369.75c0-13.75.53-26.27,10-26.27s10.05,12.52,10.05,26.27c0,13.14-.53,25.75-10.05,25.75s-10-12.61-10-25.75m10,31.57c16.84,0,17.81-18.34,17.81-31.57,0-15.34-1-32.09-17.81-32.09S215.79,356,215.79,369.75c0,14.81,1,31.57,17.81,31.57m-50.17-31.57c0-13.75.53-26.27,10-26.27s10.05,12.52,10.05,26.27c0,13.14-.53,25.75-10.05,25.75s-10-12.61-10-25.75m10,31.57c16.84,0,17.81-18.34,17.81-31.57,0-15.34-1-32.09-17.81-32.09S175.67,356,175.67,369.75c0,14.81,1,31.57,17.81,31.57" transform="translate(-76.47 -195.89)"/>
    <path class="cls-2" d="M132.9,299.78c-8,1.11-17.28-4.26-18.8-15-1.43-10.28,5.39-18.33,14.33-19.61,2.49-.38,7,.25,9.21,1.68l2.13,1.34-1.59-11.31-.66-.25a27,27,0,0,0-10.33-.76,27.68,27.68,0,0,0-18.48,10.34,27,27,0,0,0,24.8,42.87c4.49-.65,8.8-1.76,11.85-4l.55-.42-1.55-11.06-1.64,1.45a16.56,16.56,0,0,1-9.82,4.67m95.39-58.11a26.79,26.79,0,1,0,30.22,22.84,26.84,26.84,0,0,0-30.22-22.84m6.55,43.85a17.28,17.28,0,0,1-19.05-15.08c-1.41-10.27,4.79-18.33,13.7-19.61s17.18,4.8,18.65,15.07c1.49,10.7-5.4,18.51-13.3,19.62m52.24-42.32L301,241.25l-1.34-8.83-23.78,3.34,7.28,51.77,10.05-1.41L290.9,270l15.85-2.22-1.27-9L289.58,261Zm30.76,39.3,10-1.4-7.25-51.63-10,1.41Zm22.88-55.86-8.13,53.79,9.7-1.36,1.45-9.57,14.88-2.09,4,8.8,9.76-1.37-22.65-49.46Zm3.33,33.88,3-20.77,8.59,19.15Zm19.38-37.14,1.24,8.84,8.19-1.15,6,42.85,9.82-1.37-6-42.88,8.19-1.14-1.24-8.84Z" transform="translate(-76.47 -195.89)"/>
  </g>
  <path class="cls-2" d="M177.85,249.93l-8.13,53.79,9.7-1.36,1.45-9.56,14.88-2.1,4,8.8,9.76-1.37-22.66-49.46Zm3.33,33.89,3-20.78,8.59,19.15Z" transform="translate(-76.47 -195.89)"/>
  <rect class="cls-2" x="150.1" y="253.5" width="10.08" height="52.13" transform="matrix(0.99, -0.14, 0.14, 0.99, -113.86, -171.59)"/>
</svg>
