<?xml version="1.0" encoding="utf-8"?>
<!-- Generator: Adobe Illustrator 25.0.0, SVG Export Plug-In . SVG Version: 6.00 Build 0)  -->
<svg version="1.1" id="Livello_1" xmlns="http://www.w3.org/2000/svg" xmlns:xlink="http://www.w3.org/1999/xlink" x="0px" y="0px"
	 viewBox="0 0 691.9 158" style="enable-background:new 0 0 691.9 158;" xml:space="preserve">
<style type="text/css">
	.st0{fill:#FFFFFF;stroke:#FFFFFF;stroke-width:1.1798;stroke-miterlimit:9.9982;}
	.st1{fill:#FFFFFF;}
	.st2{fill:none;stroke:#FBFDFF;stroke-width:3.1094;stroke-miterlimit:9.9982;}
</style>
<g id="FCA">
	<g>
		<g>
			<polygon class="st0" points="81.2,92.2 94.7,92.2 94.7,69.4 140.7,69.4 140.7,56 94.7,56 94.7,40.4 143.3,40.4 143.3,27 81.2,27 
							"/>
			<path class="st0" d="M208.9,66.3c-3.7,11.9-16.3,18.5-28.2,14.8c-11.9-3.7-18.5-16.3-14.8-28.2s16.3-18.5,28.2-14.8
				c7.1,2.2,12.6,7.7,14.8,14.8h13.8c-3.7-19.5-22.5-32.2-41.9-28.5s-32.2,22.5-28.5,41.9c3.7,19.5,22.5,32.2,41.9,28.5
				c14.5-2.7,25.8-14.1,28.5-28.5H208.9z"/>
			<polygon class="st0" points="261.6,21.5 220.5,92.2 236.1,92.2 261.6,48.3 287.1,92.2 302.6,92.2 			"/>
			<path class="st1" d="M157.8,115h-1.4v12.5h8.3v-1.3h-6.9V115z M152,121.8c-0.9-0.7-1.9-1.1-3-1.3c-0.6-0.1-1.1-0.3-1.7-0.4
				c-0.4-0.1-0.7-0.3-1-0.5c-0.2-0.2-0.4-0.4-0.5-0.6c-0.1-0.3-0.1-0.5-0.1-0.8l0,0c0-0.6,0.2-1.1,0.7-1.4c0.6-0.4,1.2-0.6,1.9-0.6
				c0.6,0,1.2,0.1,1.8,0.3c0.6,0.2,1.2,0.6,1.7,1l0.8-1.1c-0.6-0.5-1.2-0.9-1.9-1.1c-0.8-0.3-1.6-0.4-2.4-0.4
				c-0.5,0-1.1,0.1-1.6,0.3c-0.5,0.2-0.9,0.4-1.3,0.7c-0.4,0.3-0.6,0.6-0.8,1.1c-0.2,0.4-0.3,0.9-0.3,1.4l0,0c0,0.5,0.1,0.9,0.2,1.3
				c0.2,0.4,0.4,0.7,0.8,1c0.4,0.3,0.8,0.6,1.3,0.7c0.6,0.2,1.2,0.4,1.8,0.5c0.5,0.1,1.1,0.2,1.6,0.4c0.4,0.1,0.7,0.3,1,0.5
				c0.2,0.2,0.4,0.4,0.5,0.6c0.1,0.2,0.2,0.5,0.1,0.8v0c0,0.6-0.3,1.2-0.7,1.5c-0.6,0.4-1.3,0.6-2,0.6c-0.8,0-1.5-0.1-2.3-0.4
				c-0.7-0.3-1.4-0.8-1.9-1.3l-0.9,1c0.7,0.6,1.5,1.1,2.3,1.5c0.9,0.3,1.8,0.5,2.7,0.5c0.6,0,1.1-0.1,1.7-0.3
				c0.5-0.2,0.9-0.4,1.3-0.7c0.4-0.3,0.7-0.7,0.9-1.1c0.2-0.4,0.3-0.9,0.3-1.4l0,0C153.1,123.2,152.7,122.4,152,121.8z M137.2,121.2
				l-4.1-6.2h-1.7l5.1,7.5v4.9h1.4v-4.9l5.1-7.5h-1.6L137.2,121.2z M128.6,121.9c0.4-0.2,0.7-0.4,1-0.7c0.3-0.3,0.6-0.7,0.7-1.1
				c0.2-0.4,0.2-0.9,0.2-1.4l0,0c0-0.5-0.1-0.9-0.2-1.3c-0.2-0.4-0.4-0.8-0.7-1.1c-0.4-0.4-0.9-0.7-1.5-0.9c-0.6-0.2-1.3-0.3-2-0.3
				h-5.3v12.5h1.4v-4.8h3.5l3.5,4.8h1.8l-3.7-5.1C127.8,122.3,128.2,122.1,128.6,121.9L128.6,121.9z M122.3,121.3v-5h3.8
				c0.8,0,1.6,0.2,2.3,0.6c0.5,0.4,0.8,1.1,0.8,1.8l0,0c0,0.7-0.3,1.4-0.9,1.9c-0.3,0.2-0.6,0.4-1,0.5c-0.4,0.1-0.8,0.2-1.3,0.2
				L122.3,121.3z M59.8,127.4h1.4V115h-1.3L59.8,127.4z M69.4,114.9l-5.6,12.5h1.4l1.5-3.3h6.7l1.4,3.3h1.5l-5.6-12.5H69.4z
				 M67.3,122.9l2.8-6.4l2.8,6.3L67.3,122.9z M47.3,127.5h1.4v-5.4h6.6v-1.3h-6.6v-4.5h7.4V115h-8.8L47.3,127.5z M75.9,116.3h4.2
				v11.2h1.4v-11.2h4.1V115h-9.6L75.9,116.3z M115.2,120.5h-7V115h-1.4v12.5h1.4v-5.6h7v5.6h1.4V115h-1.4L115.2,120.5z M100.8,125.9
				c-0.7,0.3-1.4,0.5-2.2,0.5c-0.6,0-1.3-0.1-1.9-0.4c-0.6-0.3-1.1-0.6-1.5-1.1c-0.4-0.5-0.8-1-1-1.6c-0.2-0.6-0.4-1.3-0.4-2l0,0
				c0-0.7,0.1-1.4,0.4-2c0.2-0.6,0.6-1.2,1-1.6c0.9-1,2.1-1.6,3.4-1.6c0.8,0,1.5,0.1,2.2,0.5c0.6,0.3,1.2,0.7,1.7,1.2l1-1
				c-0.3-0.3-0.6-0.6-1-0.8c-0.3-0.2-0.6-0.5-1-0.6c-0.4-0.2-0.8-0.3-1.3-0.4c-0.5-0.1-1-0.2-1.5-0.1c-1.7,0-3.3,0.7-4.4,1.9
				c-0.5,0.6-1,1.3-1.3,2c-0.3,0.8-0.5,1.6-0.4,2.5l0,0c0,0.9,0.1,1.7,0.4,2.5c0.3,0.7,0.7,1.4,1.3,2c0.6,0.6,1.2,1,1.9,1.4
				c0.8,0.3,1.6,0.5,2.4,0.5c1,0,1.9-0.2,2.8-0.6c0.4-0.2,0.8-0.4,1.1-0.7c0.4-0.3,0.7-0.6,1-0.9l-0.9-0.9
				C102.1,125,101.5,125.5,100.8,125.9L100.8,125.9z M225.3,116.3h4.1v11.2h1.4v-11.2h4.1V115h-9.6V116.3z M297,127.5h1.4V115H297
				V127.5z M278,116.7c-0.6-0.6-1.2-1.1-2-1.4c-1.6-0.7-3.5-0.7-5.1,0c-0.8,0.3-1.4,0.8-2,1.4c-0.6,0.6-1,1.3-1.3,2.1
				c-0.3,0.8-0.5,1.6-0.4,2.4l0,0c0,0.8,0.1,1.7,0.4,2.5c0.3,0.7,0.7,1.4,1.3,2c0.6,0.6,1.2,1.1,2,1.4c0.8,0.3,1.7,0.5,2.5,0.5
				c0.9,0,1.7-0.2,2.5-0.5c0.8-0.3,1.4-0.8,2-1.4c0.5-0.6,1-1.3,1.3-2c0.3-0.8,0.5-1.6,0.5-2.5l0,0c0-0.8-0.2-1.7-0.4-2.4
				C279,118,278.6,117.3,278,116.7z M278.3,121.2c0,0.7-0.1,1.4-0.3,2c-0.2,0.6-0.6,1.1-1,1.6c-0.9,1-2.1,1.5-3.4,1.5
				c-0.7,0-1.3-0.1-1.9-0.4c-0.6-0.3-1.1-0.6-1.5-1.1c-0.4-0.5-0.8-1-1-1.6c-0.2-0.6-0.3-1.3-0.3-2l0,0c0-0.7,0.1-1.4,0.3-2
				c0.2-0.6,0.6-1.1,1-1.6c0.4-0.5,1-0.8,1.5-1.1c0.6-0.3,1.3-0.4,1.9-0.4c0.7,0,1.3,0.1,1.9,0.4c0.6,0.3,1.1,0.6,1.5,1.1
				c0.4,0.5,0.8,1,1,1.6C278.2,119.9,278.3,120.6,278.3,121.2L278.3,121.2z M292.6,122c-0.2-0.2-0.5-0.5-0.8-0.6
				c-0.3-0.2-0.7-0.3-1-0.4c0.2-0.1,0.5-0.3,0.7-0.4c0.2-0.2,0.4-0.4,0.6-0.6c0.2-0.2,0.3-0.5,0.4-0.8c0.1-0.3,0.2-0.7,0.2-1.1l0,0
				c0-0.7-0.3-1.5-0.8-2c-0.4-0.4-0.8-0.6-1.3-0.8c-0.6-0.2-1.2-0.3-1.8-0.3h-5.2v12.5h5.4c0.6,0,1.2-0.1,1.8-0.2
				c0.5-0.1,1-0.4,1.4-0.7c0.4-0.3,0.7-0.6,0.9-1.1c0.2-0.4,0.3-0.9,0.3-1.4l0,0c0-0.4-0.1-0.8-0.2-1.1
				C293,122.6,292.8,122.3,292.6,122L292.6,122z M284.9,116.2h3.7c0.7,0,1.4,0.2,2,0.6c0.5,0.3,0.7,0.9,0.7,1.5l0,0
				c0,0.7-0.3,1.3-0.8,1.7c-0.6,0.4-1.3,0.6-2,0.5h-3.6L284.9,116.2z M292,123.9c0,0.6-0.3,1.3-0.8,1.6c-0.7,0.4-1.4,0.6-2.2,0.6
				h-4.1v-4.4h3.9c0.8-0.1,1.7,0.1,2.4,0.6C291.7,122.7,292,123.3,292,123.9L292,123.9z M304.4,115H303v12.5h8.3v-1.3h-6.9V115z
				 M315.7,121.8h6.7v-1.3h-6.7v-4.3h7.4V115h-8.8v12.5h8.9v-1.3h-7.5L315.7,121.8z M334.3,121.8c-0.9-0.7-1.9-1.1-3-1.3
				c-0.6-0.1-1.1-0.3-1.7-0.4c-0.4-0.1-0.7-0.3-1-0.5c-0.2-0.2-0.4-0.4-0.5-0.6c-0.1-0.3-0.1-0.5-0.1-0.8l0,0c0-0.6,0.2-1.1,0.7-1.4
				c0.6-0.4,1.2-0.6,1.9-0.6c0.6,0,1.2,0.1,1.8,0.3c0.6,0.2,1.2,0.6,1.7,1l0.8-1.1c-0.6-0.5-1.2-0.9-1.9-1.1
				c-0.8-0.3-1.5-0.4-2.3-0.4c-0.5,0-1.1,0.1-1.6,0.3c-0.5,0.2-0.9,0.4-1.3,0.7c-0.7,0.6-1.2,1.5-1.1,2.4l0,0c0,0.5,0.1,0.9,0.2,1.3
				c0.2,0.4,0.4,0.7,0.8,1c0.4,0.3,0.8,0.6,1.3,0.7c0.6,0.2,1.2,0.4,1.8,0.5c0.5,0.1,1.1,0.2,1.6,0.4c0.4,0.1,0.7,0.3,1,0.5
				c0.2,0.2,0.4,0.4,0.5,0.6c0.1,0.2,0.2,0.5,0.1,0.8v0c0,0.6-0.3,1.2-0.7,1.5c-0.6,0.4-1.3,0.6-2,0.6c-0.8,0-1.5-0.1-2.2-0.4
				c-0.7-0.3-1.4-0.8-1.9-1.3l-0.9,1c0.7,0.6,1.5,1.2,2.3,1.5c0.8,0.3,1.7,0.5,2.7,0.5c0.6,0,1.1-0.1,1.7-0.3
				c0.5-0.2,0.9-0.4,1.3-0.7c0.4-0.3,0.7-0.7,0.9-1.1c0.2-0.5,0.3-1,0.3-1.4l0,0C335.3,123.1,334.9,122.3,334.3,121.8L334.3,121.8z
				 M257.6,121.8l-4.5-6.8h-1.4v12.5h1.3v-10.1l4.5,6.7h0l4.4-6.7v10.1h1.4V115H262L257.6,121.8z M168.8,121.8h6.7v-1.3h-6.7v-4.3
				h7.5V115h-8.8v12.5h8.9v-1.3h-7.5V121.8z M204,114.9l-5.6,12.5h1.4l1.5-3.3h6.7l1.4,3.3h1.5l-5.6-12.5H204z M201.9,122.9l2.8-6.3
				l2.8,6.3H201.9z M187.6,121.9c0.4-0.2,0.8-0.4,1.1-0.7c0.3-0.3,0.5-0.7,0.7-1.1c0.2-0.4,0.3-0.9,0.2-1.4l0,0
				c0-0.5-0.1-0.9-0.2-1.3c-0.2-0.4-0.4-0.8-0.7-1.1c-0.4-0.4-0.9-0.7-1.4-0.9c-0.6-0.2-1.3-0.3-2-0.3h-5.3v12.5h1.4v-4.8h3.5
				l3.5,4.8h1.7l-3.8-5.1C186.7,122.3,187.2,122.2,187.6,121.9L187.6,121.9z M181.3,121.3v-5h3.8c0.8,0,1.6,0.2,2.3,0.6
				c0.5,0.4,0.8,1.1,0.8,1.8l0,0c0,0.4-0.1,0.7-0.2,1.1c-0.2,0.3-0.4,0.6-0.7,0.8c-0.3,0.2-0.6,0.4-1,0.5c-0.4,0.1-0.8,0.2-1.3,0.2
				L181.3,121.3z M221.4,122.2c0.1,1.1-0.3,2.2-1,3.1c-0.7,0.7-1.7,1.1-2.7,1c-1,0-2-0.4-2.7-1.1c-0.7-0.9-1.1-2-1-3.1V115h-1.4v7.2
				c0,0.8,0.1,1.6,0.4,2.3c0.2,0.6,0.6,1.2,1,1.7c0.5,0.4,1,0.8,1.6,1c1.3,0.5,2.8,0.5,4.1,0c0.6-0.2,1.2-0.5,1.6-1
				c0.5-0.5,0.8-1.1,1-1.7c0.3-0.8,0.4-1.6,0.4-2.4V115h-1.4L221.4,122.2z M246.5,116.7c-0.6-0.6-1.2-1.1-2-1.4
				c-1.6-0.7-3.5-0.7-5.1,0c-0.8,0.3-1.4,0.8-2,1.4c-0.6,0.6-1,1.3-1.3,2.1c-0.3,0.8-0.5,1.6-0.4,2.4l0,0c0,0.8,0.1,1.7,0.4,2.5
				c0.3,0.7,0.7,1.4,1.3,2c0.6,0.6,1.2,1.1,2,1.4c1.6,0.7,3.5,0.7,5.1,0c0.8-0.3,1.4-0.8,2-1.4c0.5-0.6,1-1.3,1.3-2
				c0.3-0.8,0.5-1.6,0.5-2.5l0,0c0-0.8-0.1-1.7-0.4-2.4C247.5,118,247.1,117.3,246.5,116.7L246.5,116.7z M246.8,121.3
				c0,0.7-0.1,1.4-0.3,2c-0.2,0.6-0.6,1.1-1,1.6c-0.9,1-2.1,1.5-3.4,1.5c-0.7,0-1.3-0.1-1.9-0.4c-0.6-0.3-1.1-0.6-1.5-1.1
				c-0.4-0.5-0.8-1-1-1.6c-0.2-0.6-0.3-1.3-0.3-2l0,0c0-0.7,0.1-1.4,0.3-2c0.2-0.6,0.6-1.1,1-1.6c0.4-0.5,0.9-0.8,1.5-1.1
				c0.6-0.3,1.3-0.5,2-0.5c0.7,0,1.3,0.1,1.9,0.4c0.6,0.3,1.1,0.6,1.5,1.1c0.4,0.5,0.8,1,1,1.6C246.7,119.8,246.8,120.5,246.8,121.3
				L246.8,121.3z"/>
		</g>
		<line class="st2" x1="375.5" y1="146.3" x2="375.5" y2="0.1"/>
		<g>
			<path class="st0" d="M418.3,38.6h21.1v3.1h-17.8v10.5h15.9v3h-15.9v12.8h-3.3V38.6z"/>
			<path class="st0" d="M445.8,38.6h3.3v26.3h16.5v3.1h-19.8V38.6z"/>
			<path class="st0" d="M471.8,38.6H493v3h-17.9v10h16v3h-16v10.3h18.1v3h-21.4V38.6z"/>
			<path class="st0" d="M499.9,38.6h21.2v3h-17.9v10h16v3h-16v10.3h18.1v3h-21.4V38.6z"/>
			<path class="st0" d="M535.7,41.7h-9.9v-3.1H549v3.1h-9.9v26.3h-3.3V41.7z"/>
			<path class="st0" d="M434.9,104.3c-2.7,2.9-5.8,4.6-9.6,4.6c-5.3,0-9.2-3.3-9.2-8.2v-0.1c0-3.9,2.6-6.7,7.1-8.5
				c-2-2.3-2.9-4.1-2.9-6.4v-0.1c0-3.9,3.1-7,7.8-7c3.7-0.2,6.9,2.7,7.1,6.4c0,0.1,0,0.1,0,0.2v0.1c0,3.7-2.6,6.1-6.9,7.6l6.7,6.8
				c1.4-2.1,2.6-4.3,3.5-6.5l2.7,1.2c-1.2,2.6-2.6,5.1-4.2,7.4l5.1,5.3l-2.5,2L434.9,104.3z M432.9,102.2l-7.9-8.1
				c-3.9,1.4-5.6,3.8-5.6,6.3v0.1c0,3.1,2.5,5.5,6.1,5.5C428.3,106.1,430.7,104.6,432.9,102.2L432.9,102.2z M432,85.5L432,85.5
				c0-2.3-1.7-4.1-3.9-4.2c-0.1,0-0.1,0-0.2,0c-2.3-0.1-4.3,1.6-4.4,3.9c0,0.1,0,0.2,0,0.3v0.1c0,1.7,0.7,3,2.9,5.4
				C430.1,89.8,432,88,432,85.5z"/>
			<path class="st0" d="M460.1,79.1h12.5c3.4,0,6,1,7.7,2.6c1.2,1.3,1.9,2.9,1.9,4.7v0.1c0.1,3-1.8,5.8-4.6,6.8
				c3.5,1,6.3,3.1,6.3,7.1v0.1c0,5-4.2,8-10.6,8h-13L460.1,79.1z M478.8,86.8c0-2.9-2.3-4.8-6.5-4.8h-8.9v10.1h8.6
				C476,92.2,478.7,90.4,478.8,86.8L478.8,86.8z M472.6,95.1h-9.3v10.4h9.8c4.4,0,7.2-2,7.2-5.2v-0.1
				C480.4,96.9,477.7,95.1,472.6,95.1z"/>
			<path class="st0" d="M489.9,96.1V79.1h3.3v16.9c0,6.3,3.4,9.9,9,9.9c5.4,0,8.8-3.3,8.8-9.7V79.1h3.3v16.8c0,8.5-4.9,13-12.2,13
				C494.8,108.9,489.9,104.4,489.9,96.1z"/>
			<path class="st0" d="M520.2,104.2l2.1-2.4c3.1,2.8,6,4.1,10.1,4.1s6.5-2.1,6.5-5v-0.1c0-2.7-1.5-4.3-7.6-5.6
				c-6.7-1.5-9.9-3.6-9.9-8.5v-0.1c0-4.6,4.1-8,9.6-8c3.8-0.1,7.4,1.2,10.3,3.6l-1.9,2.6c-2.3-2-5.4-3.2-8.5-3.2
				c-3.8,0-6.2,2.1-6.2,4.7v0.1c0,2.8,1.5,4.3,8,5.7c6.5,1.4,9.6,3.8,9.6,8.3v0.1c0,5-4.2,8.3-10,8.3
				C527.8,108.9,523.5,107.2,520.2,104.2z"/>
			<path class="st0" d="M549.3,79.1h3.3v29.4h-3.3V79.1z"/>
			<path class="st0" d="M561.2,79.1h3.1l18.5,23.5V79.1h3.2v29.4h-2.6l-19-24.1v24.1h-3.2L561.2,79.1z"/>
			<path class="st0" d="M594.3,79.1h21.2v3h-17.9v10h16v3h-16v10.3h18.1v3h-21.4V79.1z"/>
			<path class="st0" d="M620.5,104.2l2.1-2.4c3.1,2.8,6,4.1,10.1,4.1s6.5-2.1,6.5-5v-0.1c0-2.7-1.5-4.3-7.6-5.6
				c-6.7-1.5-9.9-3.6-9.9-8.5v-0.1c0-4.6,4.1-8,9.6-8c3.8-0.1,7.4,1.2,10.3,3.6l-1.9,2.6c-2.3-2.1-5.4-3.2-8.5-3.2
				c-3.8,0-6.2,2.1-6.2,4.7v0.1c0,2.8,1.5,4.3,8,5.7c6.5,1.4,9.6,3.8,9.6,8.3v0.1c0,5-4.2,8.3-10,8.3
				C628.1,108.9,623.8,107.2,620.5,104.2z"/>
			<path class="st0" d="M647,104.2l2.1-2.4c3.1,2.8,6,4.1,10.1,4.1s6.5-2.1,6.5-5v-0.1c0-2.7-1.5-4.3-7.6-5.6
				c-6.7-1.5-9.8-3.6-9.8-8.5v-0.1c0-4.6,4.1-8,9.6-8c3.8-0.1,7.4,1.2,10.3,3.6l-1.9,2.6c-2.3-2.1-5.4-3.2-8.5-3.2
				c-3.8,0-6.2,2.1-6.2,4.7v0.1c0,2.8,1.5,4.3,8,5.7c6.5,1.4,9.6,3.8,9.6,8.3v0.1c0,5-4.2,8.3-10,8.3
				C654.5,108.9,650.2,107.2,647,104.2z"/>
		</g>
	</g>
</g>
</svg>
