<svg id="Livello_1" data-name="Livello 1" xmlns="http://www.w3.org/2000/svg" xmlns:xlink="http://www.w3.org/1999/xlink" width="560.06" height="166.15" viewBox="0 0 560.06 166.15">
  <defs>
    <style>
      .cls-1 {
        fill: none;
      }

      .cls-2 {
        fill: #fff;
      }

      .cls-3 {
        fill: #e20613;
      }

      .cls-4 {
        clip-path: url(#clip-path);
      }

      .cls-5 {
        fill: url(#linear-gradient);
      }

      .cls-6 {
        fill: url(#cmyk);
      }
    </style>
    <clipPath id="clip-path" transform="translate(-14.88 -17.37)">
      <path class="cls-1" d="M229,53.12,194.49,126c1.1-.21,2.21-.42,3.32-.65q10.17-2,19.85-4.43l20.69-47.71L254,110q9.54-3.42,18.08-7.12L249.45,53.12Z"/>
    </clipPath>
    <linearGradient id="linear-gradient" x1="-73.87" y1="400.14" x2="-72.87" y2="400.14" gradientTransform="matrix(0, -151.02, -151.02, 0, 60663.08, -11021.89)" gradientUnits="userSpaceOnUse">
      <stop offset="0" stop-color="#fff"/>
      <stop offset="0.01" stop-color="#fff"/>
      <stop offset="0.48" stop-color="#fff"/>
      <stop offset="1" stop-color="#fff"/>
    </linearGradient>
    <linearGradient id="cmyk" x1="-73.87" y1="400.14" x2="-72.87" y2="400.14" gradientTransform="matrix(0, -151.02, -151.02, 0, 60663.08, -11021.89)" gradientUnits="userSpaceOnUse">
      <stop offset="0" stop-color="#fff"/>
      <stop offset="0.01" stop-color="#fff"/>
      <stop offset="0.06" stop-color="#fbdcde"/>
      <stop offset="0.17" stop-color="#f39197"/>
      <stop offset="0.28" stop-color="#ec555e"/>
      <stop offset="0.37" stop-color="#e72a35"/>
      <stop offset="0.44" stop-color="#e4101c"/>
      <stop offset="0.48" stop-color="#e30613"/>
      <stop offset="0.93" stop-color="#e30613"/>
      <stop offset="1" stop-color="#e30613"/>
    </linearGradient>
  </defs>
  <path class="cls-2" d="M550,79.24h21.13v-.69q0-12.85-11.22-20.27t-31.09-7.4q-18.5,0-29.71,7.86T487.91,79.12q0,10.57,7.77,16.37T520,103l15.1,1.49q10,1,13.34,3a6.68,6.68,0,0,1,3.31,6.18q0,5-5.06,7.72t-14.35,2.72q-12.06,0-18.37-3.76a12,12,0,0,1-6.32-10.93v-.81H485.9v1.78q0,14.36,11.36,22.11t32.5,7.75q22.15,0,33.67-7.38t11.51-21.56q0-11-7.66-17.08t-24-7.83l-15.79-1.67q-11.37-1.26-14.27-3a5.89,5.89,0,0,1-2.9-5.46q0-4.65,4.94-7.2t13.89-2.56q9.71,0,14.9,3.16A12.17,12.17,0,0,1,550,79.24" transform="translate(-14.88 -17.37)"/>
  <polygon class="cls-2" points="431.06 84.43 468.83 35.75 441.91 35.75 420.95 66.12 399.77 35.75 372.73 35.75 409.81 84.43 409.81 120.66 431.06 120.66 431.06 84.43"/>
  <path class="cls-2" d="M320.83,76.31q0-4.65,4.94-7.2t13.89-2.56q9.7,0,14.9,3.16a12.2,12.2,0,0,1,5.94,9.53h21.13v-.69q0-12.85-11.23-20.27t-31.09-7.4q-18.48,0-29.71,7.86T298.38,79.12q0,10.57,7.78,16.37T330.47,103l15.1,1.49q10.05,1,13.35,3a6.69,6.69,0,0,1,3.3,6.18q0,5-5.05,7.72t-14.35,2.72q-12.06,0-18.37-3.76a12,12,0,0,1-6.32-10.93v-.81H296.37v1.78q0,14.36,11.37,22.11t32.49,7.75q22.17,0,33.67-7.38t11.51-21.56q0-11-7.66-17.08t-24-7.83L338,84.75q-11.36-1.26-14.26-3a5.87,5.87,0,0,1-2.9-5.46" transform="translate(-14.88 -17.37)"/>
  <polygon class="cls-3" points="251.12 120.66 273.26 120.66 234.57 35.75 214.13 35.75 173.89 120.66 195.35 120.66 223.47 55.79 251.12 120.66"/>
  <g class="cls-4">
    <rect class="cls-5" x="180.83" y="37.74" width="104.94" height="103.6" transform="translate(-25.49 126.48) rotate(-33.55)"/>
  </g>
  <g class="cls-4">
    <rect class="cls-6" x="180.83" y="37.74" width="104.94" height="103.6" transform="translate(-25.49 126.48) rotate(-33.55)"/>
  </g>
  <polygon class="cls-2" points="83.22 120.66 158.6 120.66 158.6 102.81 104.52 102.81 104.52 84.55 152.69 84.55 152.69 67.27 104.52 67.27 104.52 52.92 158.6 52.92 158.6 35.75 83.22 35.75 83.22 120.66"/>
  <polygon class="cls-2" points="0 120.66 64.99 120.66 64.99 102.81 21.3 102.81 21.3 35.75 0 35.75 0 120.66"/>
  <path class="cls-2" d="M345.12,160.05h6.95c2.38,0,3.69,1.25,3.69,3.53,0,2.55-1.49,3.69-4.83,3.69h-5.81Zm13.31,14.17c0-.4-.05-.81-.08-1.2-.18-1.83-.59-3.82-3-4.44,2.25-.77,3.48-2.69,3.48-5.45,0-3.54-2.54-5.73-6.64-5.73H342v21.67h3.1v-9.15H352c2.69,0,3.16,1.7,3.45,3.77a14.5,14.5,0,0,1,.22,2.5,4.74,4.74,0,0,0,.59,2.84l0,0h3.5l-.17-.21c-.95-1.16-1.05-2.93-1.15-4.64" transform="translate(-14.88 -17.37)"/>
  <path class="cls-2" d="M383.17,179.07h1.77a2.7,2.7,0,0,1-1.66,2.66l-.08,0v1.76l.16-.05a4.59,4.59,0,0,0,3.39-4.83v-3.15h-3.58Z" transform="translate(-14.88 -17.37)"/>
  <polygon class="cls-2" points="351.84 151.89 362.97 151.89 362.97 149.24 351.84 149.24 351.84 142.68 363.78 142.68 363.78 140.03 348.74 140.03 348.74 161.7 363.87 161.7 363.87 159.05 351.84 159.05 351.84 151.89"/>
  <path class="cls-2" d="M314.63,170.86c-.29,3.74-2.61,6.07-6.06,6.07-4.48,0-7.16-3.31-7.16-8.85,0-4.13,1.87-8.54,7.13-8.54,3.13,0,5.33,1.66,5.88,4.46l0,.1h3.1l0-.15c-.64-4.36-4.06-7.06-8.95-7.06-6.14,0-10.26,4.58-10.26,11.4s3.84,11.29,10,11.29c5.41,0,8.84-3.17,9.4-8.7v-.13h-3.1Z" transform="translate(-14.88 -17.37)"/>
  <path class="cls-2" d="M332.36,170h-6.9l3.48-9.58Zm-1.71-12.57h-3.32l-8.47,21.67h3.21l2.4-6.45h8.88l2.31,6.36,0,.09h3.43l-8.44-21.59Z" transform="translate(-14.88 -17.37)"/>
  <path class="cls-2" d="M564.32,166.76l-1.17-.26c-3-.64-5.6-1.19-5.6-3.43,0-3.19,3.27-3.53,4.68-3.53,3.09,0,4.88,1.47,5.18,4.26v.12h2.94v-.13c-.17-4.39-3.09-6.9-8-6.9-3.92,0-7.89,2-7.89,6.39,0,3.94,3.3,5,7,5.79l.72.16c3.1.66,6,1.29,6,3.92,0,3.29-3.32,3.78-5.31,3.78-3,0-6.11-1.33-6.11-5v-.12h-3v.12c0,5.67,4.64,7.69,9,7.69s8.5-2,8.5-6.52c0-4.35-3.58-5.53-6.94-6.3" transform="translate(-14.88 -17.37)"/>
  <path class="cls-2" d="M523.81,170h-6.9l3.48-9.58ZM522.1,157.4h-3.33l-8.4,21.5-.06.17h3.21l2.4-6.45h8.88l2.31,6.36,0,.09h3.42l-8.43-21.59Z" transform="translate(-14.88 -17.37)"/>
  <path class="cls-2" d="M506.07,170.86c-.28,3.74-2.6,6.07-6.05,6.07-4.49,0-7.17-3.31-7.17-8.85,0-4.13,1.88-8.54,7.14-8.54,3.13,0,5.32,1.66,5.88,4.46l0,.1H509l0-.15c-.63-4.36-4-7.06-8.94-7.06-6.14,0-10.26,4.58-10.26,11.4s3.84,11.29,10,11.29c5.41,0,8.84-3.17,9.39-8.7l0-.13h-3.11Z" transform="translate(-14.88 -17.37)"/>
  <polygon class="cls-2" points="380.51 142.68 387.65 142.68 387.65 161.7 390.75 161.7 390.75 142.68 397.89 142.68 397.89 140.03 380.51 140.03 380.51 142.68"/>
  <path class="cls-2" d="M536.57,160.05h6.95c2.38,0,3.69,1.25,3.69,3.53,0,2.55-1.49,3.69-4.83,3.69h-5.81Zm13.31,14.17c0-.41,0-.81-.08-1.2-.19-1.83-.59-3.82-3-4.44,2.25-.77,3.48-2.69,3.48-5.45,0-3.54-2.54-5.73-6.64-5.73h-10.2v21.67h3.1v-9.15h6.83c2.69,0,3.16,1.7,3.45,3.77a14.5,14.5,0,0,1,.22,2.5c0,1.22.07,2.28.59,2.84l0,0h3.5l-.17-.21c-.95-1.16-1-2.93-1.15-4.64" transform="translate(-14.88 -17.37)"/>
  <polygon class="cls-2" points="415.12 149.24 404.09 149.24 404.09 140.03 400.99 140.03 400.99 161.7 404.09 161.7 404.09 151.89 415.12 151.89 415.12 161.7 418.22 161.7 418.22 140.03 415.12 140.03 415.12 149.24"/>
  <polygon class="cls-2" points="456.9 157.19 445.75 140.03 442.53 140.03 442.53 161.7 445.48 161.7 445.48 144.71 456.5 161.64 456.53 161.7 459.85 161.7 459.85 140.03 456.9 140.03 456.9 157.19"/>
  <polygon class="cls-2" points="426.66 151.89 437.79 151.89 437.79 149.24 426.66 149.24 426.66 142.68 438.6 142.68 438.6 140.03 423.56 140.03 423.56 161.7 438.69 161.7 438.69 159.05 426.66 159.05 426.66 151.89"/>
</svg>
