<?xml version="1.0" encoding="utf-8"?>
<!-- Generator: Adobe Illustrator 25.0.0, SVG Export Plug-In . SVG Version: 6.00 Build 0)  -->
<svg version="1.1" id="Livello_1" xmlns="http://www.w3.org/2000/svg" xmlns:xlink="http://www.w3.org/1999/xlink" x="0px" y="0px"
	 viewBox="0 0 590 159" style="enable-background:new 0 0 590 159;" xml:space="preserve">
<style type="text/css">
	.st0{fill:#FFFFFF;}
	.st1{fill:none;stroke:#FFFFFF;stroke-width:1.4997;stroke-miterlimit:3.9993;}
	.st2{fill:#576775;}
</style>
<g id="FCA">
	<g>
		<g>
			<path class="st0" d="M210.1,34.4h9.1l13,13.1l13.2-13.1c0.2-0.1,8.7,0,8.7,0l-22,22l-21.8-22L210.1,34.4z"/>
		</g>
	</g>
	<polygon class="st0" points="259.2,56.3 259.2,34.4 291.1,34.4 291.1,39.7 265.3,39.7 265.3,42.7 291,42.7 291,48.1 265.3,48.1 
		265.3,51 291.1,51 291.1,56.3 	"/>
	<polygon class="st0" points="330.2,34.4 330.2,56.3 324.1,56.3 324.1,47.8 304.5,47.8 304.5,56.3 298.4,56.3 298.4,34.4 
		304.5,34.4 304.5,42.5 324.1,42.5 324.1,34.4 	"/>
	<rect x="336.4" y="34.4" class="st0" width="6.1" height="22"/>
	<g>
		<g>
			<path class="st0" d="M349.1,40.7c0-4.2,2.4-6.3,7.2-6.3h24.9v5.3h-24.5c-0.7-0.1-1.4,0.4-1.5,1.2c0,0.1,0,0.2,0,0.3v8.2
				c-0.1,0.8,0.4,1.4,1.2,1.5c0.1,0,0.2,0,0.3,0h24.5v5.3h-24.9c-4.8,0-7.2-2.1-7.2-6.2V40.7z"/>
		</g>
	</g>
	<polygon class="st0" points="392.6,34.4 392.6,51 418,51 418,56.3 386.5,56.3 386.5,34.4 	"/>
	<polygon class="st0" points="422.9,56.3 422.9,34.4 454.8,34.4 454.8,39.7 428.9,39.7 428.9,42.7 454.7,42.7 454.7,48.1 
		428.9,48.1 428.9,51 454.8,51 454.8,56.3 	"/>
	<g>
		<g>
			<path class="st0" d="M210.8,89.3v-22h24.7c4.8,0,7.2,2.1,7.2,6.3V76c0,4.2-2.4,6.3-7.2,6.3h-18.7v7H210.8z M216.8,72.7v4.2h18.3
				c0.7,0.1,1.4-0.4,1.5-1.1c0-0.1,0-0.3,0-0.4v-1.2c0-1-0.5-1.5-1.5-1.5L216.8,72.7z"/>
			<path class="st0" d="M250.1,89.3V67.3h24.7c4.7,0,7.2,2.1,7.2,6.3V76c0,4.1-2.2,6.3-6.5,6.3c0,0,0,0,8,7h-8.4l-8-7h-11v7
				L250.1,89.3z M256.1,72.7v4.2h18.2c0.8,0.1,1.5-0.4,1.6-1.2c0-0.1,0-0.3,0-0.4v-1.2c0-1-0.6-1.5-1.6-1.5H256.1z"/>
			<path class="st0" d="M312.6,67.3c4.8,0,7.1,2.1,7.1,6.2V83c0,4.1-2.2,6.2-6.7,6.3h-17.9c-2.5,0-4.3-0.5-5.4-1.5
				c-1.1-1-1.7-2.6-1.7-4.8v-9.4c0-4,2.2-6.1,6.8-6.2H312.6z M313.7,83.9V72.7h-19.8v11.2L313.7,83.9L313.7,83.9z"/>
		</g>
	</g>
	<polygon class="st0" points="324.6,67.3 356.6,67.3 356.6,72.7 343.7,72.7 343.7,89.3 337.6,89.3 337.6,72.7 324.6,72.7 	"/>
	<polygon class="st0" points="362.2,89.3 362.2,67.3 394.2,67.3 394.2,72.7 368.3,72.7 368.3,75.7 394,75.7 394,81 368.3,81 
		368.3,84 394.2,84 394.2,89.3 	"/>
	<g>
		<g>
			<path class="st0" d="M400.2,73.6c0-4.2,2.4-6.3,7.2-6.3h24.9v5.3h-24.5c-0.7-0.1-1.4,0.4-1.5,1.1c0,0.1,0,0.3,0,0.4v8.2
				c-0.1,0.7,0.4,1.4,1.2,1.6c0.1,0,0.3,0,0.4,0h24.5v5.3h-24.9c-4.8,0-7.2-2.1-7.2-6.2V73.6z"/>
		</g>
	</g>
	<polygon class="st0" points="437.2,67.3 469.2,67.3 469.2,72.7 456.3,72.7 456.3,89.3 450.3,89.3 450.3,72.7 437.2,72.7 	"/>
	<rect x="474.3" y="67.3" class="st0" width="6.1" height="22"/>
	<g>
		<g>
			<path class="st0" d="M512.1,67.3c4.8,0,7.2,2.1,7.2,6.2V83c0,4.1-2.3,6.2-6.8,6.3h-17.9c-2.5,0-4.3-0.5-5.5-1.5
				c-1.1-1-1.7-2.6-1.7-4.8v-9.4c0-4,2.2-6.1,6.7-6.2H512.1L512.1,67.3z M513.3,83.9V72.7h-19.8v11.2L513.3,83.9L513.3,83.9z"/>
		</g>
	</g>
	<polygon class="st0" points="527.4,67.3 527.4,89.3 533.4,89.3 533.4,74.1 552.6,89.2 558.4,89.2 558.4,67.4 552.4,67.4 
		552.4,82.5 533.4,67.3 	"/>
	<g>
		<g>
			<line class="st1" x1="180.7" y1="0.1" x2="180.7" y2="132.7"/>
			<path class="st0" d="M85.6,0.6C49.4,0.5,20,29.8,20,66c0,14.6,4.8,28.8,13.8,40.3L55,89.8C42,72.9,45,48.7,61.8,35.6
				c3.3-2.5,6.9-4.5,10.8-5.9v71.5h25.9V29.7c20.1,7.1,30.6,29.2,23.4,49.3c-1.4,3.8-3.3,7.4-5.8,10.7l21.3,16.5
				c22.1-28.6,16.9-69.8-11.8-91.9C114.2,5.4,100.1,0.6,85.6,0.6"/>
			<path class="st0" d="M150.5,129.2c0-1.8,1.4-3.2,3.2-3.2c1.8,0,3.2,1.4,3.2,3.2c0,1.8-1.4,3.2-3.2,3.2
				C151.9,132.4,150.5,131,150.5,129.2 M153.7,131.7c1.4,0,2.5-1.1,2.5-2.5c0-1.4-1.1-2.5-2.5-2.5c-1.4,0-2.5,1.1-2.5,2.5
				C151.2,130.6,152.3,131.7,153.7,131.7C153.7,131.7,153.7,131.7,153.7,131.7"/>
			<path class="st0" d="M69.9,117H57.4c-3.1,0.1-4.7,1.5-4.7,4.4v6.6c-0.1,1.2,0.3,2.5,1.2,3.3c1.1,0.8,2.5,1.1,3.8,1h12.4
				c3.1-0.1,4.7-1.5,4.7-4.3v-6.6C74.9,118.5,73.2,117,69.9,117 M70.7,121.8v6.8H56.9v-7.8h13.8L70.7,121.8z M81.3,120.7H94
				c0.5-0.1,1,0.3,1.1,0.8c0,0.1,0,0.1,0,0.2v0.9c0,0.6-0.4,1-1,1c0,0-0.1,0-0.1,0H81.3L81.3,120.7z M77.1,132.3h4.2v-4.9h13
				c3.3,0,5-1.5,5-4.4v-1.6c0-2.9-1.7-4.4-5-4.4H77.1L77.1,132.3z M105.8,123.7v-1.8c0-0.6,0.4-1,0.9-1.1c0.1,0,0.1,0,0.2,0h11.6
				c0.6,0,1,0.4,1.1,0.9c0,0.1,0,0.1,0,0.2v1.8H105.8z M123.7,121.4c0-2.9-1.5-4.4-4.6-4.4h-12.5c-3.3,0-5,1.4-5,4.4v10.9h4.2v-4.9
				h13.7v4.9h4.2L123.7,121.4z M130.1,120.7h12.7c0.7,0,1.1,0.4,1.1,1v0.9c0.1,0.5-0.3,1-0.8,1.1c-0.1,0-0.2,0-0.3,0h-12.7V120.7z
				 M125.9,132.2h4.2v-4.8h7.6l5.5,4.9h4.4c0.5,0,1,0,1.5,0c-3.7-3.2-5.6-4.9-5.6-4.9c3,0,4.5-1.5,4.5-4.4v-1.7c0-2.9-1.7-4.4-5-4.4
				h-17.1V132.2z M22,132.3V117h4.3l10,10l10.1-10h4.2v15.3h-4.3v-10l-10.1,10l-10-10v10L22,132.3z"/>
			<path class="st2" d="M153.1,128.9v-0.8h0.5c0.3,0,0.7,0,0.7,0.4c0,0.4-0.2,0.4-0.5,0.4H153.1z M153.1,129.5h0.4l0.7,1.4h0.9
				l-0.9-1.5c0.4,0,0.8-0.3,0.8-0.8c0,0,0-0.1,0-0.1c0-0.8-0.5-1.1-1.4-1.1h-1.3v3.4h0.7L153.1,129.5z"/>
		</g>
	</g>
</g>
</svg>
