<svg id="Livello_1" data-name="Livello 1" xmlns="http://www.w3.org/2000/svg" width="458.22" height="110.1" viewBox="0 0 458.22 110.1">
  <defs>
    <style>
      .cls-1, .cls-2 {
        fill: #fff;
      }

      .cls-1 {
        stroke: #fff;
        stroke-miterlimit: 4.08;
        stroke-width: 0.77px;
      }
    </style>
  </defs>
  <line class="cls-1" x1="128.93" x2="128.93" y2="109.35"/>
  <g>
    <path class="cls-2" d="M241.23,82v6.74h-14V82Z" transform="translate(-9.8 -22.56)"/>
    <path class="cls-2" d="M287.49,91.22c0,5.15-3,7.73-8.87,7.73H247.74V92.38h30.33A1.7,1.7,0,0,0,280,90.5c0-1.23-.68-1.84-1.94-1.84H256.63c-5.93,0-8.89-2.56-8.89-7.73v-1.5c0-5.19,3-7.74,8.93-7.74h30.82v6.58H257.15a1.67,1.67,0,0,0-1.91,1.88v.14c0,1.19.61,1.8,1.91,1.8h21.47c5.9,0,8.87,2.59,8.87,7.78v1.35Z" transform="translate(-9.8 -22.56)"/>
    <path class="cls-2" d="M291.09,71.69H330.8V78.3H314.75V99h-7.51V78.3H291.09V71.69Z" transform="translate(-9.8 -22.56)"/>
    <path class="cls-2" d="M365.91,71.69c5.93,0,8.89,2.58,8.89,7.77V91.19q0,7.56-8.38,7.77H344.19q-4.65,0-6.79-1.84c-1.43-1.23-2.15-3.2-2.15-5.93V79.46q0-7.58,8.39-7.77h22.27Zm1.4,20.62v-14H342.73v14h24.58Z" transform="translate(-9.8 -22.56)"/>
    <path class="cls-2" d="M381.38,98.92V71.69h30.71c5.94,0,8.94,2.62,8.94,7.84v3c0,5.18-2.73,7.77-8.09,7.77,0,0,0,0,10,8.66l-10.47,0-9.92-8.69H388.87v8.66h-7.49Zm7.5-20.59v5.29h22.7a1.72,1.72,0,0,0,1.94-1.91V80.17c0-1.23-.68-1.84-1.94-1.84Z" transform="translate(-9.8 -22.56)"/>
    <path class="cls-2" d="M428.34,99V71.68H468v6.65H435.88v3.72h32v6.64h-32v3.62H468V99Z" transform="translate(-9.8 -22.56)"/>
  </g>
  <g>
    <path class="cls-2" d="M179.06,80.71V92.27c0,2.7.69,4.67,2.11,5.87s3.64,1.81,6.7,1.81l30.1-.06V93.36l-26.58,0-1.49,0h-1.58a1.69,1.69,0,0,1-1.91-1.92v-1.9l31.68-.09V80.71q0-7.69-8.78-7.7l-22,0c-5.49.14-8.25,2.69-8.25,7.67" transform="translate(-9.8 -22.56)"/>
    <path class="cls-2" d="M186.55,81.46a1.68,1.68,0,0,1,1.88-1.92h20.39a1.68,1.68,0,0,1,1.9,1.92v3.48H186.55V81.46Z" transform="translate(-9.8 -22.56)"/>
  </g>
  <path class="cls-2" d="M111.9,122.94c.6,0,.89.29.89.85v.71a.78.78,0,0,1-.89.87H101.35v-2.44H111.9Zm.23-3.09H97.86V132.5h3.49v-4h6.34l4.58,4.08h3.64a11.25,11.25,0,0,0,1.26,0c-3.09-2.66-4.66-4-4.63-4.06,2.49,0,3.74-1.21,3.74-3.61V123.5c0-2.44-1.39-3.65-4.15-3.65m-31,4a.79.79,0,0,1,.89-.9h9.62a.8.8,0,0,1,.89.9v1.54H81.11Zm-3.49-.38v9.08h3.49v-4h11.4v4H96v-9.08q0-3.61-3.82-3.62H81.75c-2.74,0-4.13,1.21-4.13,3.62m-6.26-.52c.61,0,.9.29.9.85v.71c0,.59-.29.87-.9.87H60.82v-2.44H71.36Zm.23-3.09H57.33v12.7h3.49v-4.07H71.58c2.78,0,4.16-1.21,4.16-3.63v-1.37c0-2.43-1.38-3.63-4.15-3.63m-31.06,3.09H52v6.51H40.53v-6.51Zm-3.47.53v5.45a3.47,3.47,0,0,0,1,2.77,4.83,4.83,0,0,0,3.17.85H51.57c2.59-.07,3.9-1.28,3.9-3.62v-5.45c0-2.42-1.38-3.62-4.13-3.62H41c-2.62.07-3.91,1.26-3.91,3.61m-22-3.6H11.48v12.67H15v-8.31l8.32,8.29,8.35-8.29v8.31h3.54V119.85H31.65l-8.35,8.32Zm92.39-9A54.48,54.48,0,1,0,9.8,77.53a54.14,54.14,0,0,0,11.47,33.4L38.91,97.18A32.08,32.08,0,0,1,53.54,47.3v59.42H75.09V47.3A32.05,32.05,0,0,1,89.72,97.15Zm13.52,18.86h-.53V129h.42c.24,0,.54,0,.54.31s-.16.37-.43.37m1.13,1.68-.73-1.24a.67.67,0,0,0,.69-.74c0-.65-.43-.86-1.17-.86H119.8v2.84h.61V130.2h.28l.65,1.19Zm1-1.43a2.1,2.1,0,1,1-2.1-2.1A2.1,2.1,0,0,1,123,130m.59,0a2.69,2.69,0,1,0-2.69,2.7,2.69,2.69,0,0,0,2.69-2.7" transform="translate(-9.8 -22.56)"/>
</svg>
