<?xml version="1.0" encoding="utf-8"?>
<!-- Generator: Adobe Illustrator 25.0.0, SVG Export Plug-In . SVG Version: 6.00 Build 0)  -->
<svg version="1.1" id="Livello_1" xmlns="http://www.w3.org/2000/svg" xmlns:xlink="http://www.w3.org/1999/xlink" x="0px" y="0px"
	 viewBox="0 0 571 154" style="enable-background:new 0 0 571 154;" xml:space="preserve">
<style type="text/css">
	.st0{fill:#FFFFFF;}
</style>
<g id="FCA">
	<g>
		<g>
			<path class="st0" d="M554.1,118.5c0.9,0.1,1.6-0.6,1.6-1.5c0-0.1,0-0.1,0-0.2V97c0.1-0.9-0.6-1.6-1.5-1.6c-0.1,0-0.1,0-0.2,0
				h-3.6c-5.4,0-7.4-2-7.4-8.4V57.8c-0.1-0.5,0.2-0.9,0.7-1c0.1,0,0.2,0,0.3,0h10.1c0.9,0,1.6-0.6,1.7-1.5c0-0.1,0-0.1,0-0.2V38.7
				c0.1-0.9-0.6-1.6-1.5-1.7c-0.1,0-0.1,0-0.2,0h-10.1c-0.5,0.1-0.9-0.2-1-0.7c0-0.1,0-0.2,0-0.3V15.1c0.1-0.9-0.6-1.6-1.5-1.7
				c-0.1,0-0.1,0-0.2,0h-24.1c-0.9-0.1-1.6,0.6-1.7,1.5c0,0.1,0,0.1,0,0.2v21c0.1,0.5-0.2,0.9-0.7,1c-0.1,0-0.2,0-0.3,0H510
				c-0.9-0.1-1.6,0.6-1.7,1.5c0,0.1,0,0.1,0,0.2v16.4c-0.1,0.9,0.6,1.6,1.5,1.7c0.1,0,0.1,0,0.2,0h4.6c0.5-0.1,0.9,0.2,1,0.7
				c0,0.1,0,0.2,0,0.3v30.2c0,21.7,8.1,30.4,29.2,30.4L554.1,118.5z M494.8,117.5c0.9,0.1,1.6-0.6,1.7-1.5c0-0.1,0-0.1,0-0.2V65.1
				c0-20.7-9.9-30.1-38-30.1c-13.2,0-24,3-31.2,8c-0.8,0.6-1,1.8-0.5,2.6l8.6,15.2c0.5,1,1.3,1,2.1,0.5c3.8-2.6,10.1-4.6,17.4-4.6
				c12.4,0,15.5,2.5,15.5,8.4v2.1c0.1,0.5-0.3,0.9-0.7,1c-0.1,0-0.2,0-0.3,0h-12.7c-20,0-34.2,8.4-34.2,26.4
				c0,17.4,12.4,24.8,26.1,24.8c10.6,0,17.4-3.3,21.6-8.3h0.2v4.6c-0.1,0.9,0.6,1.6,1.5,1.7c0.1,0,0.1,0,0.2,0L494.8,117.5z
				 M457.8,99.6c-6.3,0-9.4-2.5-9.4-6.9c0-5,3.8-7.6,11.2-7.6h9.8c0.5-0.1,0.9,0.3,1,0.7c0,0.1,0,0.2,0,0.3v5
				C470.4,96.9,466.4,99.7,457.8,99.6 M406.4,26.6c0.9,0.1,1.6-0.6,1.7-1.5c0-0.1,0-0.1,0-0.2V6.7c0.1-0.9-0.6-1.6-1.4-1.7
				c-0.1,0-0.2,0-0.2,0h-24.5c-0.9-0.1-1.6,0.6-1.6,1.5c0,0.1,0,0.1,0,0.2v18.2c-0.1,0.9,0.6,1.6,1.5,1.7c0.1,0,0.1,0,0.2,0H406.4z
				 M406.4,117.5c0.9,0.1,1.6-0.6,1.7-1.5c0-0.1,0-0.1,0-0.2V38.7c0.1-0.9-0.6-1.6-1.5-1.7c-0.1,0-0.1,0-0.2,0h-24.5
				c-0.9,0-1.6,0.6-1.7,1.5c0,0.1,0,0.1,0,0.2v77.2c-0.1,0.9,0.6,1.6,1.5,1.7c0.1,0,0.1,0,0.2,0H406.4z M289.4,115.8
				c-0.1,0.9,0.6,1.6,1.5,1.7c0.1,0,0.1,0,0.2,0h25.8c0.9,0.1,1.6-0.6,1.7-1.5c0-0.1,0-0.1,0-0.2V75.3c-0.1-0.5,0.3-0.9,0.7-1
				c0.1,0,0.2,0,0.3,0h37c0.9,0.1,1.6-0.6,1.6-1.4c0-0.1,0-0.1,0-0.2V51.9c0.1-0.9-0.6-1.6-1.5-1.6c-0.1,0-0.1,0-0.2,0h-37
				c-0.5,0.1-0.9-0.3-1-0.7c0-0.1,0-0.2,0-0.3V30.7c-0.1-0.5,0.3-0.9,0.7-1c0.1,0,0.2,0,0.3,0h45.1c0.9,0,1.6-0.6,1.6-1.5
				c0-0.1,0-0.1,0-0.2V6.7c0.1-0.9-0.6-1.6-1.4-1.7c-0.1,0-0.1,0-0.2,0H291c-0.9-0.1-1.6,0.6-1.6,1.5c0,0.1,0,0.1,0,0.2L289.4,115.8
				z M171.2,147.2c15.5,0,23.1-4.6,29.4-20.7l34.9-87.9c0.3-0.5,0.1-1.2-0.4-1.5c-0.2-0.1-0.5-0.2-0.7-0.1h-25.3
				c-1,0-1.9,0.7-2.1,1.7L194,79h-0.3l-13.9-40.3c-0.2-0.9-1-1.6-2-1.7h-26c-0.6-0.1-1.2,0.4-1.3,1c0,0.2,0,0.4,0.1,0.6l30.3,73.9
				l-1.8,5.1c-1.8,5.1-4.6,6.8-9.9,6.8h-4.1c-0.9-0.1-1.6,0.6-1.6,1.5c0,0.1,0,0.1,0,0.2v19.5c-0.1,0.9,0.6,1.6,1.5,1.6
				c0.1,0,0.1,0,0.2,0L171.2,147.2z M141.2,117.5c0.9,0.1,1.6-0.6,1.7-1.5c0-0.1,0-0.1,0-0.2V65.1c0-18.4-9.1-30.1-28.1-30.1
				c-11.2,0-19.2,4-24.6,9.9h-0.2C85.6,38.6,78.7,35,68.8,35c-10.1,0-17,4.1-20.7,9.4h-0.2v-5.7c0.1-0.9-0.6-1.6-1.5-1.7
				c-0.1,0-0.1,0-0.2,0H21.8c-0.9-0.1-1.6,0.6-1.7,1.5c0,0.1,0,0.1,0,0.2v77.2c-0.1,0.9,0.6,1.6,1.5,1.7c0.1,0,0.1,0,0.2,0h24.5
				c0.9,0.1,1.6-0.6,1.7-1.5c0-0.1,0-0.1,0-0.2V69.9c0-7.3,3.6-11.7,9.9-11.7c6.6,0,9.8,4.6,9.8,11.7v46c-0.1,0.9,0.6,1.6,1.5,1.7
				c0.1,0,0.1,0,0.2,0h24.5c0.9,0.1,1.6-0.6,1.7-1.5c0-0.1,0-0.1,0-0.2v-46c0-7.3,3.6-11.7,9.7-11.7c6.6,0,9.9,4.6,9.9,11.7v46
				c-0.1,0.9,0.6,1.6,1.5,1.7c0.1,0,0.1,0,0.2,0L141.2,117.5z"/>
		</g>
	</g>
</g>
</svg>
