<svg id="Livello_1" data-name="Livello 1" xmlns="http://www.w3.org/2000/svg" width="400" height="400" viewBox="0 0 400 400">
  <defs>
    <style>
      .cls-1 {
        fill: #fff;
      }
    </style>
  </defs>
  <g>
    <path class="cls-1" d="M200,363.48c-90.14,0-163.48-73.34-163.48-163.48S109.86,36.52,200,36.52,363.48,109.86,363.48,200,290.14,363.48,200,363.48Zm0-317C115.37,46.52,46.52,115.37,46.52,200S115.37,353.48,200,353.48,353.48,284.63,353.48,200,284.63,46.52,200,46.52Z"/>
    <path class="cls-1" d="M144.68,222.68a23.71,23.71,0,0,1-23.07-29.18h0a23.71,23.71,0,1,1,23.07,29.18Zm-14.31-27.1a14.71,14.71,0,1,0,26.83-4.33,14.71,14.71,0,0,0-26.83,4.33Z"/>
    <path class="cls-1" d="M144.69,275.61h0a4.52,4.52,0,0,1-3.23-1.37c-1.74-1.8-42.57-44.44-42.57-75.62a45.82,45.82,0,0,1,91.63-1.36c0,.47,0,.93,0,1.4,0,31.54-40.86,73.81-42.6,75.59A4.49,4.49,0,0,1,144.69,275.61Zm0-114.45h-.59a36.86,36.86,0,0,0-36.24,37.39c0,22.92,27.3,55.33,36.82,65.93,9.53-10.54,36.81-42.72,36.81-65.86v-.07q0-.57,0-1.14a36.82,36.82,0,0,0-36.8-36.25Z"/>
    <path class="cls-1" d="M269,202h0a4.52,4.52,0,0,1-3.23-1.37c-1.13-1.18-27.89-29.11-27.89-49.84a31.13,31.13,0,0,1,62.25-.09v.09c0,21-26.76,48.68-27.9,49.85A4.49,4.49,0,0,1,269,202Zm0-72.82a22.12,22.12,0,0,0-22.11,21.7c0,12.28,13.9,30.62,22.14,40,8.23-9.28,22.08-27.51,22.11-40a22.06,22.06,0,0,0-21.7-21.65Z"/>
    <circle class="cls-1" cx="268.97" cy="150.74" r="8.68"/>
    <path class="cls-1" d="M146.36,276h-.28a4.5,4.5,0,0,1,.06-9h.22a77.23,77.23,0,0,0,18-2.4,4.5,4.5,0,1,1,2.31,8.7A85.51,85.51,0,0,1,146.36,276Zm34.89-9.77a4.5,4.5,0,0,1-2.73-8.08,23.57,23.57,0,0,0,2.18-1.88,109.58,109.58,0,0,0,10.35-11.53,4.5,4.5,0,1,1,7.11,5.51A118.82,118.82,0,0,1,187,262.69a34.23,34.23,0,0,1-3,2.59A4.51,4.51,0,0,1,181.25,266.2Zm23.19-28.57a4.5,4.5,0,0,1-3.78-6.94c1.31-2,2.83-4.38,4.47-6.76a27.61,27.61,0,0,1,10.16-9.16,4.5,4.5,0,0,1,4.09,8,18.44,18.44,0,0,0-6.83,6.23c-1.56,2.28-3.05,4.58-4.33,6.55A4.49,4.49,0,0,1,204.44,237.63ZM247.13,222a81.09,81.09,0,0,1-8.54-.63c-1.51-.17-3.05-.34-4.61-.46a4.5,4.5,0,0,1,.73-9c1.66.13,3.28.31,4.85.48a73.28,73.28,0,0,0,7.57.58h0c.69,0,1.32,0,1.89-.08,1.47-.13,2.77-.31,4-.53a4.5,4.5,0,1,1,1.62,8.85c-1.47.27-3,.48-4.78.64-.85.08-1.73.12-2.71.12Zm20.45-10a4.57,4.57,0,0,1-1.82-.38,4.51,4.51,0,0,1-2.29-5.94,20.28,20.28,0,0,0,1.4-8.14,4.5,4.5,0,0,1,4.5-4.5h0a4.49,4.49,0,0,1,4.5,4.5,28.77,28.77,0,0,1-2.17,11.79A4.49,4.49,0,0,1,267.58,212Z"/>
  </g>
</svg>
