<svg id="Livello_1" data-name="Livello 1" xmlns="http://www.w3.org/2000/svg" width="400" height="400" viewBox="0 0 400 400">
  <defs>
    <style>
      .cls-1 {
        fill: #fff;
      }
    </style>
  </defs>
  <g>
    <path class="cls-1" d="M200,363.48c-90.14,0-163.48-73.34-163.48-163.48S109.86,36.52,200,36.52,363.48,109.86,363.48,200,290.14,363.48,200,363.48Zm0-317C115.37,46.52,46.52,115.37,46.52,200S115.37,353.48,200,353.48,353.48,284.63,353.48,200,284.63,46.52,200,46.52Z"/>
    <path class="cls-1" d="M223.34,246.9H177.53a8.33,8.33,0,0,1-8.32-8.32V166.41a8.33,8.33,0,0,1,8.32-8.32h45.81a8.33,8.33,0,0,1,8.32,8.32v72.17A8.33,8.33,0,0,1,223.34,246.9Zm-45.81-81.81a1.32,1.32,0,0,0-1.32,1.32v72.17a1.32,1.32,0,0,0,1.32,1.32h45.81a1.32,1.32,0,0,0,1.32-1.32V166.41a1.32,1.32,0,0,0-1.32-1.32Z"/>
    <path class="cls-1" d="M212.78,180.57h-24.7a3.5,3.5,0,1,1,0-7h24.7a3.5,3.5,0,1,1,0,7Z"/>
    <path class="cls-1" d="M212.78,190.73h-24.7a3.5,3.5,0,0,1,0-7h24.7a3.5,3.5,0,0,1,0,7Z"/>
    <path class="cls-1" d="M212.78,200.88h-24.7a3.5,3.5,0,0,1,0-7h24.7a3.5,3.5,0,0,1,0,7Z"/>
    <path class="cls-1" d="M212.78,211h-24.7a3.5,3.5,0,0,1,0-7h24.7a3.5,3.5,0,0,1,0,7Z"/>
    <path class="cls-1" d="M212.78,221.18h-24.7a3.5,3.5,0,1,1,0-7h24.7a3.5,3.5,0,1,1,0,7Z"/>
    <path class="cls-1" d="M212.78,231.34h-24.7a3.5,3.5,0,0,1,0-7h24.7a3.5,3.5,0,0,1,0,7Z"/>
    <path class="cls-1" d="M200.05,311.25l-25.21-40.67h11.88V253.84h26.66v16.74h11.88Zm-12.63-33.67L200.05,298l12.63-20.39h-6.3V260.84H193.72v16.74Z"/>
    <path class="cls-1" d="M213.38,151.16H186.72V134.41H174.84l25.21-40.66,25.21,40.66H213.38Zm-19.66-7h12.66V127.41h6.3L200.05,107l-12.63,20.38h6.3Z"/>
  </g>
</svg>
