<svg id="Livello_1" data-name="Livello 1" xmlns="http://www.w3.org/2000/svg" width="400" height="400" viewBox="0 0 400 400">
  <defs>
    <style>
      .cls-1 {
        fill: #fff;
      }
    </style>
  </defs>
  <path class="cls-1" d="M200,363.48c-90.14,0-163.48-73.34-163.48-163.48S109.86,36.52,200,36.52,363.48,109.86,363.48,200,290.14,363.48,200,363.48Zm0-317C115.37,46.52,46.52,115.37,46.52,200S115.37,353.48,200,353.48,353.48,284.63,353.48,200,284.63,46.52,200,46.52Z"/>
  <g>
    <g>
      <path class="cls-1" d="M200,284.57A84.57,84.57,0,1,1,284.57,200,84.67,84.67,0,0,1,200,284.57Zm0-161.4A76.83,76.83,0,1,0,276.83,200,76.91,76.91,0,0,0,200,123.17Z"/>
      <path class="cls-1" d="M218.6,266.86V241.49a3.87,3.87,0,1,1,7.73,0v14a61.42,61.42,0,1,0-53.13-.23V241.49a3.87,3.87,0,1,1,7.73,0v25.24l-5.22-2a69.16,69.16,0,1,1,48.09.18Z"/>
      <path class="cls-1" d="M222.38,245.55a3.87,3.87,0,0,1-3.87-3.87,18.84,18.84,0,0,0-37.67,0,3.87,3.87,0,1,1-7.73,0,26.57,26.57,0,1,1,53.13,0A3.86,3.86,0,0,1,222.38,245.55Z"/>
    </g>
    <path class="cls-1" d="M151,192c3.42-3.19,9-5.1,15-5.1s11.6,1.91,15,5.1l.2.19h4.13l.2-.19c3.44-3.19,9.06-5.1,15-5.1s11.6,1.91,15,5.1l.2.19h4.13l.2-.19c3.42-3.19,9.06-5.1,15-5.1,5.69,0,10.41,1.71,14.06,5.1l.2.19h7.35l-.76-1.08c-3.48-5-11.17-8-20.61-8-6.65,0-12.92,1.53-17.29,4.17-4.36-2.66-10.62-4.17-17.3-4.17s-12.92,1.53-17.29,4.17c-4.36-2.66-10.62-4.17-17.3-4.17a37.75,37.75,0,0,0-12.86,2.1L154.4,182h29.14l1.36-4H149.11l-4.84,14.14h6.49Z"/>
    <path class="cls-1" d="M248,198.25c-3.34,3.19-8.83,5.09-14.65,5.09s-11.32-1.92-14.65-5.09l-.21-.18h-4.05l-.2.18c-3.33,3.19-8.83,5.09-14.65,5.09s-11.31-1.92-14.65-5.09l-.2-.18h-4.05l-.2.18c-3.34,3.19-8.83,5.09-14.65,5.09s-11.32-1.92-14.65-5.09l-.21-.18h-6.71l.73,1.08c3.24,4.8,11.72,8,21.08,8,6.49,0,12.62-1.5,16.89-4.17,4.27,2.65,10.38,4.17,16.89,4.17s12.61-1.5,16.88-4.17c4.28,2.65,10.38,4.17,16.89,4.17,9.36,0,17.85-3.21,21.08-8l.73-1.08h-7.2Z"/>
  </g>
</svg>
