<svg id="Livello_1" data-name="Livello 1" xmlns="http://www.w3.org/2000/svg" width="400" height="400" viewBox="0 0 400 400">
  <defs>
    <style>
      .cls-1, .cls-2 {
        fill: #699BAB;
      }

      .cls-1 {
        stroke: #699BAB;
        stroke-miterlimit: 10;
      }
    </style>
  </defs>
  <path class="cls-1" d="M200,363.48c-90.14,0-163.48-73.34-163.48-163.48S109.86,36.52,200,36.52,363.48,109.86,363.48,200,290.14,363.48,200,363.48Zm0-317C115.37,46.52,46.52,115.37,46.52,200S115.37,353.48,200,353.48,353.48,284.63,353.48,200,284.63,46.52,200,46.52Z"/>
  <g>
    <g>
      <path class="cls-2" d="M283.68,297H222.34V104.21h61.34Zm-56.26-5.08H278.6V109.29H227.42Z"/>
      <path class="cls-2" d="M284.9,298.22H221.11V103H284.9Zm-61.34-2.45h58.9V105.43h-58.9Zm56.26-2.64H226.2V108.07h53.62Zm-51.18-2.44h48.73V110.52H228.64Z"/>
    </g>
    <g>
      <path class="cls-2" d="M189.75,297H162.36V164.42l24.87-26.07,2.52,3.59Zm-22.31-5.08h17.23V148.48l-17.23,18Z"/>
      <path class="cls-2" d="M191,298.22H161.13V163.92l26.25-27.48,3.59,5.11Zm-27.39-2.45h24.95V142.32l-1.44-2L163.58,164.9Zm22.31-2.64H166.22V166l19.67-20.53Zm-17.23-2.44h14.78V151.52L168.66,167Z"/>
    </g>
    <g>
      <path class="cls-2" d="M212.06,297H184.67V141.88l2.61-3.53,24.78,26.07Zm-22.31-5.08H207V166.46l-17.23-18Z"/>
      <path class="cls-2" d="M213.29,298.22H183.45V141.47l3.71-5,26.13,27.47Zm-27.4-2.45h25V164.9l-23.45-24.65-1.5,2Zm22.31-2.64H188.53V145.44L208.2,166ZM191,290.69h14.79V167L191,151.52Z"/>
    </g>
    <g>
      <path class="cls-2" d="M283.68,164.26H222.34V139.62h61.34Zm-56.26-5.08H278.6V144.7H227.42Z"/>
      <path class="cls-2" d="M284.9,165.49H221.11v-27.1H284.9ZM223.56,163h58.9v-22.2h-58.9Zm56.26-2.64H226.2V143.48h53.62ZM228.64,158h48.73v-12H228.64Z"/>
    </g>
    <g>
      <rect class="cls-2" x="266.47" y="172.72" width="5.08" height="19.08"/>
      <path class="cls-2" d="M272.78,193h-7.53V171.49h7.53Zm-5.08-2.44h2.64V173.94H267.7Z"/>
    </g>
    <g>
      <rect class="cls-2" x="266.47" y="200.33" width="5.08" height="19.08"/>
      <path class="cls-2" d="M272.78,220.63h-7.53V199.11h7.53Zm-5.08-2.44h2.64V201.55H267.7Z"/>
    </g>
    <g>
      <rect class="cls-2" x="266.47" y="227.95" width="5.08" height="19.08"/>
      <path class="cls-2" d="M272.78,248.25h-7.53V226.73h7.53Zm-5.08-2.45h2.64V229.17H267.7Z"/>
    </g>
    <g>
      <rect class="cls-2" x="266.47" y="255.57" width="5.08" height="19.08"/>
      <path class="cls-2" d="M272.78,275.87h-7.53V254.35h7.53Zm-5.08-2.44h2.64V256.79H267.7Z"/>
    </g>
    <g>
      <rect class="cls-2" x="195.82" y="172.72" width="5.08" height="19.08"/>
      <path class="cls-2" d="M202.12,193H194.6V171.49h7.52ZM197,190.57h2.64V173.94H197Z"/>
    </g>
    <g>
      <rect class="cls-2" x="173.51" y="172.72" width="5.08" height="19.08"/>
      <path class="cls-2" d="M179.82,193h-7.53V171.49h7.53Zm-5.09-2.44h2.65V173.94h-2.65Z"/>
    </g>
    <g>
      <rect class="cls-2" x="195.82" y="200.33" width="5.08" height="19.08"/>
      <path class="cls-2" d="M202.12,220.63H194.6V199.11h7.52ZM197,218.19h2.64V201.55H197Z"/>
    </g>
    <g>
      <rect class="cls-2" x="195.82" y="227.95" width="5.08" height="19.08"/>
      <path class="cls-2" d="M202.12,248.25H194.6V226.73h7.52ZM197,245.8h2.64V229.17H197Z"/>
    </g>
    <g>
      <rect class="cls-2" x="195.82" y="255.57" width="5.08" height="19.08"/>
      <path class="cls-2" d="M202.12,275.87H194.6V254.35h7.52ZM197,273.43h2.64V256.79H197Z"/>
    </g>
    <g>
      <rect class="cls-2" x="125.82" y="200.33" width="5.09" height="19.08"/>
      <path class="cls-2" d="M132.12,220.63h-7.53V199.11h7.53ZM127,218.19h2.64V201.55H127Z"/>
    </g>
    <g>
      <rect class="cls-2" x="125.82" y="227.95" width="5.09" height="19.08"/>
      <path class="cls-2" d="M132.12,248.25h-7.53V226.73h7.53ZM127,245.8h2.64V229.17H127Z"/>
    </g>
    <g>
      <rect class="cls-2" x="125.82" y="255.57" width="5.09" height="19.08"/>
      <path class="cls-2" d="M132.12,275.87h-7.53V254.35h7.53ZM127,273.43h2.64V256.79H127Z"/>
    </g>
    <g>
      <rect class="cls-2" x="250.47" y="172.72" width="5.09" height="19.08"/>
      <path class="cls-2" d="M256.77,193h-7.52V171.49h7.52Zm-5.08-2.44h2.64V173.94h-2.64Z"/>
    </g>
    <g>
      <rect class="cls-2" x="266.47" y="113.86" width="5.08" height="19.08"/>
      <path class="cls-2" d="M272.78,134.16h-7.53V112.64h7.53Zm-5.08-2.44h2.64V115.09H267.7Z"/>
    </g>
    <g>
      <rect class="cls-2" x="250.47" y="113.86" width="5.09" height="19.08"/>
      <path class="cls-2" d="M256.77,134.16h-7.52V112.64h7.52Zm-5.08-2.44h2.64V115.09h-2.64Z"/>
    </g>
    <g>
      <rect class="cls-2" x="250.47" y="200.33" width="5.09" height="19.08"/>
      <path class="cls-2" d="M256.77,220.63h-7.52V199.11h7.52Zm-5.08-2.44h2.64V201.55h-2.64Z"/>
    </g>
    <g>
      <rect class="cls-2" x="250.47" y="227.95" width="5.09" height="19.08"/>
      <path class="cls-2" d="M256.77,248.25h-7.52V226.73h7.52Zm-5.08-2.45h2.64V229.17h-2.64Z"/>
    </g>
    <g>
      <rect class="cls-2" x="250.47" y="255.57" width="5.09" height="19.08"/>
      <path class="cls-2" d="M256.77,275.87h-7.52V254.35h7.52Zm-5.08-2.44h2.64V256.79h-2.64Z"/>
    </g>
    <g>
      <path class="cls-2" d="M152.73,297H114.18V192.48h38.55Zm-33.47-5.08h28.38V197.57H119.26Z"/>
      <path class="cls-2" d="M154,298.22H113v-107h41Zm-38.55-2.45h36.11V193.71H115.4Zm33.46-2.64H118V196.34h30.82Zm-28.38-2.44h25.94v-91.9H120.48Z"/>
    </g>
    <g>
      <path class="cls-2" d="M152.73,197.57H124.36v-43.4h28.37Zm-23.28-5.09h18.19V159.25H129.45Z"/>
      <path class="cls-2" d="M154,198.79H123.14V152.94H154Zm-28.37-2.45h25.93v-41H125.58Zm23.28-2.64H128.22V158h20.64Zm-18.19-2.44h15.75V160.47H130.67Z"/>
    </g>
  </g>
</svg>
