<svg id="Livello_1" data-name="Livello 1" xmlns="http://www.w3.org/2000/svg" width="400" height="400" viewBox="0 0 400 400">
  <defs>
    <style>
      .cls-1, .cls-2 {
        fill: #699BAB;
        stroke: #699BAB;
        stroke-miterlimit: 10;
      }

      .cls-2 {
        stroke-width: 1.8px;
      }
    </style>
  </defs>
  <path class="cls-1" d="M200,363.48c-90.14,0-163.48-73.34-163.48-163.48S109.86,36.52,200,36.52,363.48,109.86,363.48,200,290.14,363.48,200,363.48Zm0-317C115.37,46.52,46.52,115.37,46.52,200S115.37,353.48,200,353.48,353.48,284.63,353.48,200,284.63,46.52,200,46.52Z"/>
  <g>
    <path class="cls-2" d="M289.72,273.76H116.07a3.6,3.6,0,0,1-3.6-3.6v-75a3.6,3.6,0,0,1,7.2,0v71.39H286.12V195.17a3.6,3.6,0,1,1,7.2,0v75A3.6,3.6,0,0,1,289.72,273.76Z"/>
    <path class="cls-2" d="M258.15,214.56h-7.89a3.6,3.6,0,1,1,0-7.2h7.89c18.2,0,31.92-12,31.92-28V135.63H115.73v43.76c0,16,13.7,28,31.87,28h7.94a3.6,3.6,0,0,1,0,7.2H147.6c-22.28,0-39.08-15.12-39.08-35.17V132a3.61,3.61,0,0,1,3.6-3.61H293.67a3.61,3.61,0,0,1,3.6,3.61v47.36C297.27,199.44,280.45,214.56,258.15,214.56Z"/>
    <path class="cls-2" d="M230.52,214.56H175.27a3.6,3.6,0,0,1,0-7.2h55.25a3.6,3.6,0,1,1,0,7.2Z"/>
    <path class="cls-2" d="M230.18,124.14H223v-4a8.25,8.25,0,0,0-8.23-8.24H187.11a8.25,8.25,0,0,0-8.24,8.24v4h-7.2v-4a15.46,15.46,0,0,1,15.44-15.44h27.63a15.46,15.46,0,0,1,15.44,15.44Z"/>
    <path class="cls-2" d="M175.27,226.4H155.54a3.6,3.6,0,0,1-3.6-3.6V199.12a3.6,3.6,0,0,1,3.6-3.6h19.73a3.6,3.6,0,0,1,3.6,3.6V222.8A3.6,3.6,0,0,1,175.27,226.4Zm-16.13-7.2h12.53V202.72H159.14Z"/>
    <path class="cls-2" d="M250.26,226.4H230.52a3.6,3.6,0,0,1-3.6-3.6V199.12a3.6,3.6,0,0,1,3.6-3.6h19.74a3.6,3.6,0,0,1,3.6,3.6V222.8A3.6,3.6,0,0,1,250.26,226.4Zm-16.13-7.2h12.53V202.72H234.13Z"/>
  </g>
</svg>
