<svg id="Livello_1" data-name="Livello 1" xmlns="http://www.w3.org/2000/svg" width="400" height="400" viewBox="0 0 400 400">
  <defs>
    <style>
      .cls-1, .cls-2 {
        fill: #fff;
        stroke: #fff;
        stroke-miterlimit: 10;
      }

      .cls-2 {
        stroke-width: 1.77px;
      }
    </style>
  </defs>
  <path class="cls-1" d="M200,363.48c-90.14,0-163.48-73.34-163.48-163.48S109.86,36.52,200,36.52,363.48,109.86,363.48,200,290.14,363.48,200,363.48Zm0-317C115.37,46.52,46.52,115.37,46.52,200S115.37,353.48,200,353.48,353.48,284.63,353.48,200,284.63,46.52,200,46.52Z"/>
  <g>
    <path class="cls-2" d="M215.31,147.41H177.48a3.54,3.54,0,0,1-3.42-2.61l-14.19-52a3.55,3.55,0,0,1,3.43-4.48h66.2a3.54,3.54,0,0,1,3.42,4.48l-14.19,52A3.54,3.54,0,0,1,215.31,147.41Zm-35.12-7.09H212.6L224.85,95.4H167.94Z"/>
    <path class="cls-2" d="M196.4,312.9a3.5,3.5,0,0,1-2.51-1L146.6,264.58a3.54,3.54,0,0,1-.94-3.33L174,143a3.54,3.54,0,0,1,3.45-2.72h37.83a3.54,3.54,0,0,1,3.45,2.72l28.37,118.21a3.54,3.54,0,0,1-.94,3.33l-47.28,47.28A3.52,3.52,0,0,1,196.4,312.9ZM153,261l43.37,43.37L239.77,261,212.51,147.41H180.28Z"/>
    <path class="cls-2" d="M276.78,260.89a3.22,3.22,0,0,1-.86-.11L257,256.06l1.72-6.89L274.2,253,277.72,239l-51.3-88.59,6.15-3.56,52,89.84a3.58,3.58,0,0,1,.37,2.64l-4.73,18.91A3.55,3.55,0,0,1,276.78,260.89Z"/>
  </g>
</svg>
