<svg id="Livello_1" data-name="Livello 1" xmlns="http://www.w3.org/2000/svg" width="400" height="400" viewBox="0 0 400 400">
  <defs>
    <style>
      .cls-1, .cls-2 {
        fill: #699BAB;
      }

      .cls-1 {
        stroke: #699BAB;
        stroke-miterlimit: 10;
      }
    </style>
  </defs>
  <path class="cls-1" d="M200,363.48c-90.14,0-163.48-73.34-163.48-163.48S109.86,36.52,200,36.52,363.48,109.86,363.48,200,290.14,363.48,200,363.48Zm0-317C115.37,46.52,46.52,115.37,46.52,200S115.37,353.48,200,353.48,353.48,284.63,353.48,200,284.63,46.52,200,46.52Z"/>
  <g>
    <path class="cls-2" d="M226.27,278.6a20.25,20.25,0,0,1-13-4.2,14.08,14.08,0,0,1-5.24-11.06c0-10.14,9.88-20,22.49-22.55,7.23-1.43,14-.11,18.55,3.64a14.06,14.06,0,0,1,5.24,11c0,10.14-9.88,20-22.49,22.55A28.77,28.77,0,0,1,226.27,278.6Zm9.86-31.7a21.91,21.91,0,0,0-4.26.43c-9.29,1.84-17.13,9.18-17.13,16a7.42,7.42,0,0,0,2.81,5.91c3,2.43,7.84,3.27,13,2.24,9.29-1.84,17.13-9.17,17.13-16a7.42,7.42,0,0,0-2.81-5.9A13.8,13.8,0,0,0,236.13,246.9Z"/>
    <path class="cls-2" d="M254.36,255.45H247.7V160.36a3.33,3.33,0,0,1,6.44-1.2c3.65,9.52,8.7,14.44,13.58,19.19,7.39,7.21,14.38,14,14.38,33.51h-6.66c0-16.68-5.46-22-12.37-28.74a73.85,73.85,0,0,1-8.71-9.6Z"/>
    <path class="cls-2" d="M119.29,250.86a20.17,20.17,0,0,1-13-4.2,14.07,14.07,0,0,1-5.25-11c0-10.15,9.89-20.05,22.5-22.55,7.23-1.44,14-.11,18.55,3.63a14.08,14.08,0,0,1,5.24,11.06c0,10.14-9.88,20-22.49,22.55A28.74,28.74,0,0,1,119.29,250.86Zm9.86-31.69a21.91,21.91,0,0,0-4.26.43c-9.29,1.84-17.13,9.17-17.13,16a7.42,7.42,0,0,0,2.81,5.9c3,2.44,7.83,3.28,13,2.25,9.28-1.85,17.13-9.18,17.13-16a7.42,7.42,0,0,0-2.81-5.91A13.8,13.8,0,0,0,129.15,219.17Z"/>
    <path class="cls-2" d="M190.61,227.09a20.25,20.25,0,0,1-13-4.2,14.08,14.08,0,0,1-5.24-11.06c0-10.14,9.88-20,22.49-22.55,7.23-1.43,14-.11,18.55,3.64A14.06,14.06,0,0,1,218.7,204c0,10.14-9.88,20.05-22.49,22.55A28.77,28.77,0,0,1,190.61,227.09Zm9.86-31.7a21.91,21.91,0,0,0-4.26.43c-9.28,1.84-17.13,9.18-17.13,16a7.42,7.42,0,0,0,2.81,5.91c3,2.43,7.83,3.27,13,2.24,9.29-1.84,17.13-9.17,17.13-16a7.42,7.42,0,0,0-2.81-5.9A13.8,13.8,0,0,0,200.47,195.39Z"/>
    <path class="cls-2" d="M147.38,227.72h-6.66V136.58a3.33,3.33,0,0,1,2.28-3.16l71.32-23.78a3.38,3.38,0,0,1,3,.46,3.33,3.33,0,0,1,1.38,2.71v91.13H212V117.43L147.38,139Z"/>
    <rect class="cls-2" x="142.12" y="145.14" width="75.18" height="6.67" transform="translate(-37.72 64.43) rotate(-18.43)"/>
  </g>
</svg>
