<svg id="Livello_1" data-name="Livello 1" xmlns="http://www.w3.org/2000/svg" width="400" height="400" viewBox="0 0 400 400">
  <defs>
    <style>
      .cls-1, .cls-2 {
        fill: #fff;
        stroke: #fff;
        stroke-miterlimit: 10;
      }

      .cls-2 {
        stroke-width: 1.66px;
      }
    </style>
  </defs>
  <path class="cls-1" d="M200,363.48c-90.14,0-163.48-73.34-163.48-163.48S109.86,36.52,200,36.52,363.48,109.86,363.48,200,290.14,363.48,200,363.48Zm0-317C115.37,46.52,46.52,115.37,46.52,200S115.37,353.48,200,353.48,353.48,284.63,353.48,200,284.63,46.52,200,46.52Z"/>
  <g>
    <path class="cls-2" d="M198.9,206.16a3.32,3.32,0,0,1-3.32-3.32V99.23a3.32,3.32,0,1,1,6.64,0V202.84A3.32,3.32,0,0,1,198.9,206.16Z"/>
    <path class="cls-2" d="M199.15,159.07a3.32,3.32,0,0,1-2.35-1l-28.25-28.25a3.32,3.32,0,0,1,4.69-4.7l25.91,25.91,25.91-25.91a3.32,3.32,0,0,1,4.7,4.7L201.5,158.09A3.3,3.3,0,0,1,199.15,159.07Z"/>
    <path class="cls-2" d="M198.9,206.16a3.22,3.22,0,0,1-1.66-.45l-89.61-52A3.32,3.32,0,0,1,111,148l89.6,52a3.32,3.32,0,0,1-1.67,6.19Z"/>
    <path class="cls-2" d="M119.64,192.74a3.32,3.32,0,0,1-.86-6.53l35.4-9.48-9.49-35.39a3.32,3.32,0,1,1,6.42-1.72l10.34,38.6a3.31,3.31,0,0,1-.33,2.52,3.35,3.35,0,0,1-2,1.55l-38.6,10.34A3.12,3.12,0,0,1,119.64,192.74Z"/>
    <path class="cls-2" d="M109.06,257.75a3.32,3.32,0,0,1-1.66-6.2L197.25,200a3.32,3.32,0,0,1,3.31,5.76l-89.85,51.59A3.29,3.29,0,0,1,109.06,257.75Z"/>
    <path class="cls-2" d="M147.65,268.1a3.24,3.24,0,0,1-.86-.12,3.32,3.32,0,0,1-2.35-4.07l9.49-35.39L118.54,219a3.32,3.32,0,1,1,1.71-6.41L158.85,223A3.31,3.31,0,0,1,161.2,227l-10.34,38.6A3.33,3.33,0,0,1,147.65,268.1Z"/>
    <path class="cls-2" d="M198.9,309.77a3.32,3.32,0,0,1-3.32-3.32V202.84a3.32,3.32,0,0,1,6.64,0V306.45A3.32,3.32,0,0,1,198.9,309.77Z"/>
    <path class="cls-2" d="M226.91,281.51a3.31,3.31,0,0,1-2.35-1l-25.9-25.91-25.91,25.91a3.32,3.32,0,0,1-4.7-4.7l28.26-28.25a3.31,3.31,0,0,1,4.69,0l28.26,28.25a3.32,3.32,0,0,1-2.35,5.67Z"/>
    <path class="cls-2" d="M288.5,258.18a3.24,3.24,0,0,1-1.66-.45l-89.6-52a3.32,3.32,0,1,1,3.33-5.74l89.6,52a3.32,3.32,0,0,1-1.67,6.19Z"/>
    <path class="cls-2" d="M249.91,268.52a3.33,3.33,0,0,1-3.21-2.46l-10.34-38.6a3.31,3.31,0,0,1,2.35-4.06l38.59-10.35a3.32,3.32,0,0,1,1.72,6.42L243.63,229l9.49,35.39a3.33,3.33,0,0,1-2.35,4.07A3.22,3.22,0,0,1,249.91,268.52Z"/>
    <path class="cls-2" d="M198.91,206.16a3.32,3.32,0,0,1-1.66-6.2l89.85-51.59a3.32,3.32,0,0,1,3.31,5.76l-89.85,51.59A3.29,3.29,0,0,1,198.91,206.16Z"/>
    <path class="cls-2" d="M278.41,193.17a3.22,3.22,0,0,1-.86-.11L239,182.71a3.3,3.3,0,0,1-2.34-4.06L247,140.05a3.32,3.32,0,1,1,6.41,1.72l-9.48,35.39,35.39,9.48a3.32,3.32,0,0,1-.86,6.53Z"/>
  </g>
</svg>
