<svg id="Livello_1" data-name="Livello 1" xmlns="http://www.w3.org/2000/svg" width="400" height="400" viewBox="0 0 400 400">
  <defs>
    <style>
      .cls-1, .cls-2 {
        fill: #699BAB;
        stroke: #699BAB;
        stroke-miterlimit: 10;
      }

      .cls-2 {
        stroke-width: 1.88px;
      }
    </style>
  </defs>
  <path class="cls-1" d="M200,363.48c-90.14,0-163.48-73.34-163.48-163.48S109.86,36.52,200,36.52,363.48,109.86,363.48,200,290.14,363.48,200,363.48Zm0-317C115.37,46.52,46.52,115.37,46.52,200S115.37,353.48,200,353.48,353.48,284.63,353.48,200,284.63,46.52,200,46.52Z"/>
  <g>
    <path class="cls-2" d="M267.31,220.38a206.6,206.6,0,0,1-123.8,0,4,4,0,0,0-2.39,7.65,214.52,214.52,0,0,0,128.58,0,4,4,0,0,0-2.39-7.65Z"/>
    <path class="cls-2" d="M306.84,229.83l-2.09-10.48a11.91,11.91,0,0,0-6.39-8.36,3.9,3.9,0,0,1-2.14-3.2,4,4,0,0,0-.05-.92v-2.38a90.87,90.87,0,0,0-67-87.52A11.16,11.16,0,0,0,218,105.84H192.84A11.17,11.17,0,0,0,181.68,117a88,88,0,0,0-20.63,8.72,4.05,4.05,0,0,0-2,1.17,94.19,94.19,0,0,0-44.45,79.72v.87a3.92,3.92,0,0,1-2.18,3.54,11.91,11.91,0,0,0-6.39,8.36L104,229.83a9.71,9.71,0,0,0,7.38,11.32l23.87,5.31a14.76,14.76,0,0,1,8.09,4.93l1,1.17a52.8,52.8,0,0,0,40.65,19h40.94a52.77,52.77,0,0,0,40.65-19l1-1.17a14.69,14.69,0,0,1,8.09-4.93l23.87-5.31A9.71,9.71,0,0,0,306.84,229.83Zm-9.11,3.49-23.88,5.31a22.83,22.83,0,0,0-12.51,7.62l-1,1.17a44.77,44.77,0,0,1-34.49,16.15H184.94a44.74,44.74,0,0,1-34.49-16.15l-1-1.17A22.8,22.8,0,0,0,137,238.63l-23.87-5.31a1.64,1.64,0,0,1-1.25-1.91l2.1-10.48a3.89,3.89,0,0,1,2.11-2.76,13.21,13.21,0,0,0,2.16-1.42c.13.16.24.32.38.48a16,16,0,0,0,3,2.65,4.07,4.07,0,0,0,2.27.7,4,4,0,0,0,2.27-7.32,7.61,7.61,0,0,1-1.47-1.3,8.66,8.66,0,0,1-2-4.77v-.61A86.23,86.23,0,0,1,158,137.19v27.87a4,4,0,0,0,8,0v-33a80.44,80.44,0,0,1,15.64-6.72v55.49a4,4,0,0,0,8,0V117a3.15,3.15,0,0,1,3.14-3.14H218a3.15,3.15,0,0,1,3.14,3.14v2.9s0,0,0,.06v60.87a4,4,0,1,0,8,0V125.28a83,83,0,0,1,15.63,6.54v33.24a4,4,0,0,0,8,0V136.83A84.86,84.86,0,0,1,263.85,146a82.32,82.32,0,0,1,24.3,58.45v3c0,.05,0,.09,0,.14a8.38,8.38,0,0,1-1.92,4.42,7.27,7.27,0,0,1-1.46,1.3,4,4,0,0,0,4.53,6.62,15.71,15.71,0,0,0,3-2.65c.14-.16.25-.32.38-.48a13.08,13.08,0,0,0,2.1,1.37,3.91,3.91,0,0,1,2.11,2.76L299,231.41A1.63,1.63,0,0,1,297.73,233.32Z"/>
  </g>
</svg>
