<svg id="Livello_1" data-name="Livello 1" xmlns="http://www.w3.org/2000/svg" width="400" height="400" viewBox="0 0 400 400">
  <defs>
    <style>
      .cls-1, .cls-2 {
        fill: #699BAB;
        stroke: #699BAB;
        stroke-miterlimit: 10;
      }

      .cls-2 {
        stroke-width: 1.74px;
      }
    </style>
  </defs>
  <path class="cls-1" d="M200,363.48c-90.14,0-163.48-73.34-163.48-163.48S109.86,36.52,200,36.52,363.48,109.86,363.48,200,290.14,363.48,200,363.48Zm0-317C115.37,46.52,46.52,115.37,46.52,200S115.37,353.48,200,353.48,353.48,284.63,353.48,200,284.63,46.52,200,46.52Z"/>
  <g>
    <path class="cls-2" d="M200.56,260c-23.95,0-49.59-11-74.15-31.78a198.54,198.54,0,0,1-30.07-31.57,3.47,3.47,0,0,1,0-4.08A199.26,199.26,0,0,1,126.41,161c24.56-20.79,50.2-31.78,74.15-31.78s49.7,11,74.46,31.77a202.27,202.27,0,0,1,30.39,31.57,3.48,3.48,0,0,1,0,4.12A203,203,0,0,1,275,228.19C250.26,249,224.51,260,200.56,260Zm-97-65.4A202.45,202.45,0,0,0,131,223c16.21,13.7,41.43,30,69.53,30s53.51-16.34,69.87-30a206.12,206.12,0,0,0,27.78-28.4,205.54,205.54,0,0,0-27.78-28.4c-16.36-13.71-41.76-30-69.87-30s-53.42,16.39-69.66,30.14A202.67,202.67,0,0,0,103.52,194.56Z"/>
    <path class="cls-2" d="M147.19,231.92a65.45,65.45,0,0,1,0-74.73l5.71,4a58.45,58.45,0,0,0,0,66.78Z"/>
    <path class="cls-2" d="M254.55,231.94l-5.7-4a58.49,58.49,0,0,0,0-66.76l5.7-4a65.41,65.41,0,0,1,0,74.72Z"/>
    <path class="cls-2" d="M200.88,224.58a29.92,29.92,0,0,1-28.91-38l1.34-4.9,4.08,3a9.68,9.68,0,0,0,5.8,2,9.75,9.75,0,0,0,7.84-15.6L188,167l4.89-1.35a30,30,0,1,1,8,58.93Zm-23-31.83c0,.61-.07,1.21-.07,1.81a23.06,23.06,0,1,0,23.06-23.05c-.6,0-1.21,0-1.82.07a16.34,16.34,0,0,1,.87,5.29,16.72,16.72,0,0,1-22,15.88Z"/>
  </g>
</svg>
