<svg id="Livello_1" data-name="Livello 1" xmlns="http://www.w3.org/2000/svg" width="400" height="400" viewBox="0 0 400 400">
  <defs>
    <style>
      .cls-1, .cls-2 {
        fill: #699BAB;
      }

      .cls-1 {
        stroke: #699BAB;
        stroke-miterlimit: 10;
      }
    </style>
  </defs>
  <path class="cls-1" d="M200,363.48c-90.14,0-163.48-73.34-163.48-163.48S109.86,36.52,200,36.52,363.48,109.86,363.48,200,290.14,363.48,200,363.48Zm0-317C115.37,46.52,46.52,115.37,46.52,200S115.37,353.48,200,353.48,353.48,284.63,353.48,200,284.63,46.52,200,46.52Z"/>
  <g>
    <g>
      <path class="cls-2" d="M301.86,170.74c-5.59-7.33-13.5-11.54-21.71-11.54a51.53,51.53,0,0,0-7.86.62V128.36a32.86,32.86,0,0,0-32.83-32.83H160.53a32.86,32.86,0,0,0-32.83,32.83v31.46a51.3,51.3,0,0,0-7.85-.62c-8.21,0-16.12,4.21-21.72,11.55-5.87,7.7-8,17.39-5.63,25.94,3.46,12.6,15,16.68,22.39,17.31v36.42a17.39,17.39,0,0,0,14.91,17.16v27.07a2.51,2.51,0,0,0,2.51,2.51H147a2.53,2.53,0,0,0,2.45-1.92l6.56-27.4H244l6.56,27.4a2.51,2.51,0,0,0,2.44,1.92h14.73a2.52,2.52,0,0,0,2.51-2.51V267.58a17.39,17.39,0,0,0,14.91-17.16V214c7.4-.63,18.93-4.72,22.39-17.31,2.34-8.55.24-18.25-5.64-25.95M132.73,128.36a27.84,27.84,0,0,1,27.8-27.81h78.93a27.84,27.84,0,0,1,27.81,27.81v32.55c-12.53,3.54-19.93,12.52-19.93,25.24v17H152.66v-17c0-12.72-7.4-21.7-19.93-25.24Zm19.93,79.85h94.68V233H152.66Zm-7.61,83.93H134.82v-24.3h16.05Zm109.9,0-5.83-24.3h16.06v24.3Zm47.7-96.77c-3.81,13.9-19.33,13.74-20,13.68a2.42,2.42,0,0,0-1.81.72,2.53,2.53,0,0,0-.76,1.8v38.85a12.41,12.41,0,0,1-12.39,12.4H132.31a12.41,12.41,0,0,1-12.39-12.4V211.57a2.53,2.53,0,0,0-2.51-2.52h-.08c-.1,0-16.15.29-20-13.68-1.94-7.05-.15-15.12,4.78-21.58,4.63-6.08,11.09-9.56,17.72-9.56s27.79,1.58,27.79,21.92v49.37a2.51,2.51,0,0,0,2.51,2.51h99.7a2.51,2.51,0,0,0,2.51-2.51V186.15c0-20.34,21.27-21.92,27.79-21.92s13.08,3.48,17.72,9.56c4.93,6.46,6.71,14.53,4.78,21.58"/>
      <path class="cls-2" d="M267.69,298.38H253a3.72,3.72,0,0,1-3.63-2.86L243,269.06H157l-6.34,26.46a3.71,3.71,0,0,1-3.63,2.86H132.31a3.73,3.73,0,0,1-3.73-3.73v-26a18.71,18.71,0,0,1-14.91-18.19V215.1c-8.9-1.09-19.13-6.35-22.35-18.09-2.44-8.91-.26-19,5.84-27,5.82-7.64,14.09-12,22.69-12a51.82,51.82,0,0,1,6.63.43v-30a34.09,34.09,0,0,1,34.05-34.05h78.93a34.09,34.09,0,0,1,34.06,34.05v30a51.82,51.82,0,0,1,6.63-.43c8.59,0,16.86,4.38,22.68,12,6.11,8,8.29,18.1,5.85,27-3.23,11.74-13.45,17-22.35,18.09v35.32a18.71,18.71,0,0,1-14.91,18.19v26A3.73,3.73,0,0,1,267.69,298.38ZM155.08,266.62h89.84L251.71,295a1.28,1.28,0,0,0,1.25,1h14.73a1.29,1.29,0,0,0,1.29-1.29V266.53l1-.16a16.24,16.24,0,0,0,13.86-16V212.87l1.12-.09c8.32-.71,18.29-5.39,21.32-16.41,2.25-8.19.22-17.49-5.43-24.88h0c-5.36-7-12.92-11-20.74-11a50.89,50.89,0,0,0-7.67.59l-1.41.22V128.36a31.65,31.65,0,0,0-31.61-31.61H160.53a31.64,31.64,0,0,0-31.6,31.61v32.88l-1.41-.22a50.89,50.89,0,0,0-7.67-.59c-7.83,0-15.39,4-20.75,11.06-5.64,7.4-7.67,16.7-5.42,24.88,3,11,13,15.7,21.32,16.41l1.11.09v37.55a16.24,16.24,0,0,0,13.86,16l1.05.16v28.12a1.29,1.29,0,0,0,1.29,1.29H147a1.3,1.3,0,0,0,1.26-1ZM266.4,293.36H254l-6.4-26.74H266.4Zm-10.49-2.45h8V269.06H250.67ZM146,293.36H133.6V266.62h18.82Zm-10-2.45h8.05l5.24-21.85H136ZM267.69,264H132.31a13.64,13.64,0,0,1-13.62-13.62V211.57a1.28,1.28,0,0,0-1.28-1.29v0c-2.06,0-17.38-.55-21.23-14.56-2-7.41-.17-15.87,5-22.64,4.86-6.38,11.68-10,18.69-10,6.8,0,29,1.67,29,23.14v49.37a1.28,1.28,0,0,0,1.29,1.28h99.7a1.28,1.28,0,0,0,1.29-1.28V186.15c0-21.47,22.21-23.14,29-23.14,7,0,13.82,3.66,18.69,10,5.16,6.76,7,15.22,5,22.64h0c-4.15,15.12-21.12,14.6-21.28,14.58a1.16,1.16,0,0,0-.85.37,1.28,1.28,0,0,0-.4.93v38.85A13.63,13.63,0,0,1,267.69,264ZM117.18,207.83h.15a3.8,3.8,0,0,1,2.68,1.06,3.74,3.74,0,0,1,1.13,2.68v38.85a11.18,11.18,0,0,0,11.17,11.17H267.69a11.18,11.18,0,0,0,11.17-11.17V211.57a3.76,3.76,0,0,1,1.13-2.68,3.52,3.52,0,0,1,2.69-1.06c.22,0,15.17.41,18.79-12.79,1.84-6.68.13-14.35-4.57-20.51-4.4-5.77-10.51-9.08-16.75-9.08s-26.57,1.49-26.57,20.7v49.37a3.74,3.74,0,0,1-3.73,3.73h-99.7a3.74,3.74,0,0,1-3.73-3.73V186.15c0-19.21-20.34-20.7-26.57-20.7s-12.35,3.31-16.75,9.08c-4.7,6.17-6.41,13.83-4.57,20.51,3.41,12.45,17.24,12.8,18.62,12.8h0Zm131.38,26.4H151.44V207h97.12Zm-94.67-2.45h92.23V209.44H153.89Zm94.67-27.37H151.44V186.15c0-12.05-6.76-20.6-19-24.07l-.89-.25V128.36a29.06,29.06,0,0,1,29-29h78.93a29.06,29.06,0,0,1,29,29v33.47l-.89.25c-12.28,3.47-19,12-19,24.07ZM153.89,202h92.23V186.15c0-12.75,7.24-22.24,19.93-26.16V128.36a26.61,26.61,0,0,0-26.59-26.58H160.53A26.61,26.61,0,0,0,134,128.36V160c12.69,3.92,19.94,13.41,19.94,26.16Z"/>
    </g>
    <path class="cls-2" d="M267.69,297.54H253a2.88,2.88,0,0,1-2.81-2.21l-6.49-27.11H156.34l-6.49,27.1a2.9,2.9,0,0,1-2.82,2.22H132.31a2.89,2.89,0,0,1-2.89-2.89V267.91a17.87,17.87,0,0,1-14.91-17.49V214.35c-8.79-.86-19.18-5.89-22.38-17.56-2.37-8.66-.24-18.48,5.7-26.27,5.66-7.44,13.69-11.7,22-11.7a52,52,0,0,1,7.47.55v-31a33.25,33.25,0,0,1,33.21-33.21h78.93a33.25,33.25,0,0,1,33.22,33.21v31a52,52,0,0,1,7.47-.55c8.33,0,16.35,4.26,22,11.69,5.94,7.79,8.07,17.62,5.7,26.28-3.21,11.67-13.59,16.7-22.38,17.56v36.07a17.87,17.87,0,0,1-14.91,17.49v26.74A2.89,2.89,0,0,1,267.69,297.54ZM155.74,267.46h88.52l6.63,27.69a2.13,2.13,0,0,0,2.07,1.63h14.73a2.14,2.14,0,0,0,2.13-2.13v-27.4l.32,0a17.1,17.1,0,0,0,14.58-16.79V213.65l.35,0c8.61-.73,18.92-5.59,22.06-17,2.31-8.44.23-18-5.57-25.61h0c-5.52-7.24-13.32-11.39-21.41-11.39a52.73,52.73,0,0,0-7.8.6l-.44.07v-31.9a32.48,32.48,0,0,0-32.45-32.45H160.53a32.48,32.48,0,0,0-32.44,32.45v31.9l-.44-.07a52.73,52.73,0,0,0-7.8-.6c-8.09,0-15.9,4.15-21.42,11.39-5.79,7.6-7.87,17.18-5.56,25.61,3.14,11.44,13.45,16.3,22,17l.35,0v36.77a17.11,17.11,0,0,0,14.58,16.79l.33,0v27.4a2.14,2.14,0,0,0,2.13,2.13H147a2.12,2.12,0,0,0,2.07-1.63Zm109.82,25.06H254.65l-6-25.06h16.92Zm-10.31-.77h9.54V268.22H249.61Zm-109.9.77H134.44V267.46h16.92Zm-10.15-.77h9.55l5.64-23.53H135.2ZM267.69,263.2H132.31a12.8,12.8,0,0,1-12.78-12.78V211.57a2.12,2.12,0,0,0-2.12-2.13c-.14,0-16.49.37-20.43-14-2-7.16-.16-15.35,4.84-21.91,4.71-6.17,11.28-9.71,18-9.71s28.17,1.6,28.17,22.3v49.37a2.13,2.13,0,0,0,2.13,2.12h99.7a2.13,2.13,0,0,0,2.13-2.12V186.15c0-20.7,21.56-22.3,28.17-22.3s13.32,3.54,18,9.71c5,6.55,6.82,14.74,4.85,21.91h0c-4,14.49-20.23,14-20.4,14a2.11,2.11,0,0,0-1.51.61,2.16,2.16,0,0,0-.65,1.53v38.85A12.79,12.79,0,0,1,267.69,263.2ZM117.35,208.66h.06a2.86,2.86,0,0,1,2,.82,2.9,2.9,0,0,1,.88,2.08v38.85a12,12,0,0,0,12,12H267.69a12,12,0,0,0,12-12V211.57a2.88,2.88,0,0,1,.88-2.07,2.79,2.79,0,0,1,2.08-.83c.18,0,15.81.5,19.62-13.4h0c1.91-6.94.14-14.88-4.71-21.25-4.57-6-10.91-9.41-17.42-9.41s-27.41,1.56-27.41,21.54v49.37a2.89,2.89,0,0,1-2.89,2.89h-99.7a2.89,2.89,0,0,1-2.89-2.89V186.15c0-20-21-21.54-27.41-21.54S107,168,102.43,174c-4.86,6.37-6.62,14.32-4.71,21.25,3.72,13.55,19.42,13.43,19.58,13.4Zm130.37,24.72H152.28V207.83h95.44Zm-94.67-.76H247v-24H153.05Zm94.67-29.05H152.28V186.15c0-12.28-7.16-21.35-19.65-24.88l-.28-.07V128.36a28.22,28.22,0,0,1,28.18-28.19h78.93a28.22,28.22,0,0,1,28.19,28.19V161.2l-.28.07c-12.49,3.54-19.65,12.6-19.65,24.88Zm-94.67-.76H247V186.15c0-12.55,7.26-21.84,19.93-25.53V128.36a27.47,27.47,0,0,0-27.43-27.43H160.53a27.46,27.46,0,0,0-27.42,27.43v32.26c12.68,3.68,19.94,13,19.94,25.53Z"/>
  </g>
</svg>
