<svg id="Livello_1" data-name="Livello 1" xmlns="http://www.w3.org/2000/svg" width="400" height="400" viewBox="0 0 400 400">
  <defs>
    <style>
      .cls-1 {
        fill: #fff;
      }
    </style>
  </defs>
  <path class="cls-1" d="M200,363.48c-90.14,0-163.48-73.34-163.48-163.48S109.86,36.52,200,36.52,363.48,109.86,363.48,200,290.14,363.48,200,363.48Zm0-317C115.37,46.52,46.52,115.37,46.52,200S115.37,353.48,200,353.48,353.48,284.63,353.48,200,284.63,46.52,200,46.52Z"/>
  <g>
    <path class="cls-1" d="M193.55,280.15a70.74,70.74,0,0,1,0-141.47v10a60.74,60.74,0,1,0,60.74,60.74h10A70.81,70.81,0,0,1,193.55,280.15Z"/>
    <path class="cls-1" d="M220.48,138.19H209.42a1.75,1.75,0,0,1-1.74-1.74v-2.77a1.75,1.75,0,0,1,1.74-1.74h11.06a1.74,1.74,0,0,1,1.74,1.74v2.77a1.74,1.74,0,0,1-1.74,1.74"/>
    <path class="cls-1" d="M220.48,154.9H209.42a1.75,1.75,0,0,1-1.74-1.74v-2.77a1.76,1.76,0,0,1,1.74-1.75h11.06a1.75,1.75,0,0,1,1.74,1.75v2.77a1.74,1.74,0,0,1-1.74,1.74"/>
    <path class="cls-1" d="M210.79,124.85H189.92a11.64,11.64,0,0,0-11.61,11.61v13.68a11.64,11.64,0,0,0,11.61,11.61h20.87Z"/>
    <path class="cls-1" d="M246.35,210.82a12.92,12.92,0,1,1,12.92,12.91,12.92,12.92,0,0,1-12.92-12.91"/>
    <path class="cls-1" d="M151.55,209.62c2.87-2.68,7.58-4.29,12.6-4.29s9.74,1.61,12.61,4.29l.17.16h3.47l.17-.16c2.89-2.68,7.6-4.29,12.61-4.29s9.73,1.61,12.6,4.29l.17.16h3.47l.17-.16c2.87-2.68,7.6-4.29,12.61-4.29a16.68,16.68,0,0,1,11.8,4.29l.17.16h6.16l-.63-.91c-2.92-4.22-9.37-6.73-17.3-6.73-5.58,0-10.85,1.28-14.52,3.5-3.65-2.24-8.91-3.5-14.52-3.5s-10.84,1.28-14.52,3.5c-3.65-2.24-8.91-3.5-14.51-3.5a31.9,31.9,0,0,0-10.8,1.76l.91-2.66H178.9L180,197.9H150l-4.07,11.88h5.45ZM233,214.87c-2.8,2.68-7.41,4.27-12.3,4.27s-9.5-1.61-12.3-4.27l-.17-.16h-3.4l-.17.16c-2.8,2.68-7.41,4.27-12.29,4.27s-9.5-1.61-12.3-4.27l-.17-.16h-3.4l-.17.16c-2.8,2.68-7.42,4.27-12.3,4.27s-9.5-1.61-12.3-4.27l-.17-.16h-5.64l.62.91c2.71,4,9.84,6.73,17.69,6.73,5.45,0,10.59-1.27,14.18-3.51,3.59,2.22,8.71,3.51,14.18,3.51s10.59-1.27,14.17-3.51c3.59,2.22,8.71,3.51,14.18,3.51,7.86,0,15-2.7,17.69-6.73l.62-.91h-6.05Z"/>
  </g>
</svg>
