<svg id="Livello_1" data-name="Livello 1" xmlns="http://www.w3.org/2000/svg" width="400" height="400" viewBox="0 0 400 400">
  <defs>
    <style>
      .cls-1 {
        fill: #fff;
      }
    </style>
  </defs>
  <g>
    <path class="cls-1" d="M200,363.48c-90.14,0-163.48-73.34-163.48-163.48S109.86,36.52,200,36.52,363.48,109.86,363.48,200,290.14,363.48,200,363.48Zm0-317C115.37,46.52,46.52,115.37,46.52,200S115.37,353.48,200,353.48,353.48,284.63,353.48,200,284.63,46.52,200,46.52Z"/>
    <path class="cls-1" d="M200,261.69h0a66.06,66.06,0,0,1,0-132.12h0a66.14,66.14,0,0,1,66,66.06v12a4.33,4.33,0,1,1-8.66,0v-12A57.47,57.47,0,0,0,200,138.23h0A57.4,57.4,0,0,0,200,253a4.33,4.33,0,0,1,0,8.66Z"/>
    <path class="cls-1" d="M261.84,215.62a4.28,4.28,0,0,1-3.06-1.27l-14.73-14.73a4.33,4.33,0,0,1,6.12-6.12l11.67,11.67,11.67-11.67a4.33,4.33,0,0,1,6.12,6.12L264.9,214.35A4.28,4.28,0,0,1,261.84,215.62Z"/>
    <path class="cls-1" d="M201.43,214.1h0a3.89,3.89,0,0,1-2.75-1.14L177.43,191.7a3.89,3.89,0,0,1,5.5-5.5l18.5,18.5L231,175.1a3.89,3.89,0,0,1,5.5,5.5L204.18,213A3.89,3.89,0,0,1,201.43,214.1Z"/>
  </g>
</svg>
