<svg id="Livello_1" data-name="Livello 1" xmlns="http://www.w3.org/2000/svg" width="400" height="400" viewBox="0 0 400 400">
  <defs>
    <style>
      .cls-1 {
        fill: #fff;
      }
    </style>
  </defs>
  <g>
    <path class="cls-1" d="M200,363.48c-90.14,0-163.48-73.34-163.48-163.48S109.86,36.52,200,36.52,363.48,109.86,363.48,200,290.14,363.48,200,363.48Zm0-317C115.37,46.52,46.52,115.37,46.52,200S115.37,353.48,200,353.48,353.48,284.63,353.48,200,284.63,46.52,200,46.52Z"/>
    <path class="cls-1" d="M194.44,241.06a3.79,3.79,0,0,1-.94-.12,3.94,3.94,0,0,1-3-3.82v-35.2h-7.43a3.93,3.93,0,0,1-3.49-5.76l25-47.68A3.93,3.93,0,0,1,212,150.3v35.2h7.44a3.94,3.94,0,0,1,3.48,5.76l-25,47.69A3.92,3.92,0,0,1,194.44,241.06Zm-4.86-47h4.86a3.93,3.93,0,0,1,3.93,3.94v23.14l14.56-27.76h-4.86a3.93,3.93,0,0,1-3.94-3.94V166.29Z"/>
    <path class="cls-1" d="M238.65,281.18H162.07a7.42,7.42,0,0,1-7.41-7.41V128.12a7.42,7.42,0,0,1,7.41-7.41h76.58a7.42,7.42,0,0,1,7.41,7.41V273.77A7.42,7.42,0,0,1,238.65,281.18Zm-76.12-7.88h75.66V128.58H162.53Z"/>
    <path class="cls-1" d="M219.75,128.59H181v-25h38.78Zm-30.91-7.88h23v-9.22h-23Z"/>
    <path class="cls-1" d="M194.44,214.58a3.93,3.93,0,0,1-3.94-3.94v-8.72H176.56l11.69-22.31a3.94,3.94,0,1,1,7,3.66l-5.65,10.78h8.8v16.59A3.93,3.93,0,0,1,194.44,214.58Zm15.49-3.1a3.86,3.86,0,0,1-1.82-.45,3.92,3.92,0,0,1-1.66-5.31l6.48-12.35h-8.8V180.22a3.94,3.94,0,0,1,7.87,0v5.28h13.94l-12.52,23.88A3.92,3.92,0,0,1,209.93,211.48Z"/>
  </g>
</svg>
