<svg id="Livello_1" data-name="Livello 1" xmlns="http://www.w3.org/2000/svg" viewBox="0 0 400 400"><defs><style>.cls-1{fill:#191918;}.cls-2,.cls-3{fill:none;stroke:#29b8ce;stroke-miterlimit:10;}.cls-2{stroke-width:4.3px;}.cls-3{stroke-width:4.3px;}.cls-4{font-size:27.55px;fill:#fff;font-family:MyriadPro-Regular, Myriad Pro;}.cls-5{letter-spacing:-0.06em;}.cls-6{letter-spacing:0em;}.cls-7{letter-spacing:-0.01em;}.cls-8{letter-spacing:0em;}</style></defs><rect class="cls-1" x="0.32" y="-0.27" width="399.66" height="399.86"/><path class="cls-2" d="M169,230.19s-8.5-25-14.25-48-6.5-46.75-6.5-46.75h94.5s-.75,23.75-6.5,46.75-14.25,48-14.25,48Z"/><path class="cls-2" d="M239.21,168.36s9.18-9,20.5-4.5c14.58,5.75,12.37,20.21,5.75,28.08-9,10.72-36.58,17-36.58,17"/><path class="cls-2" d="M164.08,245.57c-16.62,0-30.75-15.38-24.25-15.38H250.71c6.5,0-7.63,15.38-24.25,15.38Z"/><path class="cls-2" d="M185.71,123.44a33.41,33.41,0,0,1,8.75-23c8.5-9,7-20.25-1.25-27.75"/><path class="cls-3" d="M202.21,123.28s-1.13-8.2,7-18c8.5-10.25,5.25-22.25,3.75-27"/><text class="cls-4" transform="translate(169.61 284)"><tspan class="cls-5">T<tspan class="cls-6" x="11.93" y="0">ake</tspan></tspan><tspan x="-18.97" y="26">a b</tspan><tspan class="cls-7" x="15.82" y="26">r</tspan><tspan class="cls-8" x="24.56" y="26">eak!</tspan></text></svg>